<?xml version="1.0" encoding="UTF-8"?><svg id="a" xmlns="http://www.w3.org/2000/svg" viewBox="0 0 452 452.69"><defs><style>.b{fill:#1e4162;}</style></defs><path class="b" d="M451.88,228.09c0,38.8-.12,77.59,.12,116.39,.04,6.62-1.8,11.43-6.67,16.12-21.29,20.48-42.2,41.35-63.22,62.11-8.45,8.35-16.99,16.62-25.14,25.27-2.86,3.03-5.59,4.82-9.83,4.51-3.82-.28-7.68,0-11.52,0-74.14,.02-148.27-.06-222.41,.21-7.88,.03-13.57-2.16-19.15-7.83-28.79-29.29-57.88-58.29-87.12-87.14C1.9,352.73-.01,347.63,.01,340.52,.27,262.92,.29,185.33,0,107.74c-.02-6.5,2.08-10.76,6.41-15.06C35.02,64.26,63.54,35.75,91.91,7.1,96.8,2.15,101.88-.25,109.06,.02c17.61,.65,35.25,.6,52.88,.63,59.92,.11,119.85,.28,179.77,.04,7.86-.03,13.57,1.94,19.18,7.65,27.72,28.21,55.76,56.1,83.94,83.85,5.05,4.97,7.09,10.06,7.03,17.2-.33,39.56-.16,79.13-.16,118.69h.18Zm-104.72,217.34c-5.5-10-10.93-19.12-15.57-28.62-2.52-5.16-6.18-7.19-11.46-7.32-2.3-.06-4.6-.03-6.9-.03-53.32,0-106.65-.01-159.97-.02-6.9,0-13.82-.17-20.71,.11-2.05,.08-5.03,.87-5.9,2.34-6.37,10.71-12.32,21.68-18.94,33.54h239.44ZM6.79,224.25c0,36.42,0,72.84,0,109.26,0,2.3-.08,4.6,.05,6.9,.15,2.73,1.08,4.5,4.22,2.71,8.32-4.73,16.56-9.61,25-14.09,3.81-2.03,5.48-4.44,5.54-8.96,.19-13.38,1.3-26.76,1.42-40.14,.44-47.92,.63-95.83,.91-143.75,.02-2.68,.28-5.42-.14-8.03-.27-1.69-1.17-3.91-2.5-4.71-10.17-6.1-20.49-11.95-30.83-17.77-2.42-1.36-3.48,.17-3.58,2.44-.13,3.06-.11,6.13-.11,9.2,0,35.65,0,71.3-.01,106.96ZM107.97,5.91c6.59,11.5,12.25,21.83,18.45,31.81,1.07,1.72,4.42,2.79,6.74,2.84,31.04,.61,62.08,1.05,93.12,1.38,5.33,.06,10.68-.89,16.02-.84,26.44,.25,52.88,.66,79.32,1.05,3.86,.06,6.32-1.53,8.17-5.04,3.93-7.45,8.31-14.66,12.46-21.99,4.06-7.17,3.97-7.47-3.86-7.64-23.37-.51-46.74-1.14-70.11-1.26-49.1-.26-98.21-.23-147.31-.31-3.79,0-7.57,0-12.98,0Zm119.33,227.11c-1.8,2.56-3,4-3.9,5.61-10.15,18.04-20.26,36.1-30.36,54.16-9.16,16.39-18.34,32.77-27.41,49.21-2.41,4.37-1.97,4.89,3.25,5.13,1.15,.05,2.3-.01,3.45-.01,36.09-.11,72.18-.21,108.26-.33,2.3,0,4.61,0,6.9-.18,2.66-.22,2.96-1.87,1.93-3.94-.85-1.71-1.88-3.33-2.82-5-14.26-25.4-28.48-50.83-42.8-76.2-5.23-9.27-10.69-18.42-16.51-28.44Zm217.83-125.9c-8.95,4.95-16.14,9.37-23.71,12.99-7.09,3.38-9.49,8.12-9.42,16.14,.43,53.36,.15,106.73,.43,160.09,.05,9.8-3.93,21.47,2.15,28.95,5.88,7.23,16.63,10.49,25.25,15.49,.99,.58,1.99,1.16,3.04,1.62,1.96,.85,3.67,1.12,3.64-1.93-.02-3.07,.08-6.14,.05-9.21-.43-37.98-.96-75.95-1.29-113.93-.2-23.03-.11-46.07-.14-69.1-.02-13.01,0-26.03,0-41.11Zm-97.33,182.02c0-5.39,0-9.53,0-13.68,0-26.44,.01-52.88,.01-79.33,0-9.58,.1-19.16-.05-28.74-.08-5.04-.85-5.38-5.27-2.91-24.04,13.45-48.07,26.91-72.1,40.38-10.68,5.99-21.38,11.93-31.99,18.03-3.58,2.05-3.51,3.27-.05,5.44,1.62,1.02,3.34,1.87,5.01,2.8,19.37,10.81,38.72,21.66,58.11,32.44,14.99,8.33,30.02,16.57,46.33,25.56Zm-241.05-19.9h-.82c0,4.97-.09,9.95,.03,14.93,.12,4.89,.91,5.29,5.39,2.8,25.73-14.32,51.45-28.64,77.14-43.01,9.35-5.23,18.65-10.53,27.92-15.89,1.93-1.12,2.61-2.73,.22-4.25-2.58-1.64-5.15-3.32-7.8-4.84-31.53-18.05-63.08-36.08-94.63-54.11-4.8-2.74-5.72-2.3-5.82,3.33-.59,33.68-1.1,67.36-1.64,101.03Zm58.7-161.38c20.78,36.87,41.02,72.78,61.69,109.47,1.51-2.32,2.6-3.83,3.52-5.45,13.06-23,26.12-46.01,39.13-69.04,5.66-10.01,11.18-20.11,16.83-30.12,1.84-3.27,1.13-5.06-2.68-5.31-1.91-.13-3.84-.06-5.76-.07-34.94-.03-69.89-.07-104.83-.07-2.19,0-4.38,.31-7.9,.58Zm-117.46,11.09c1.33-1.07,2.91-2.09,4.19-3.41,22.15-22.77,44.21-45.63,66.48-68.28,2.81-2.86,2.47-4.88,.74-7.88-5.36-9.26-10.61-18.59-15.68-28.02-1.91-3.56-3.59-3.17-6.03-.7-7.81,7.9-15.71,15.7-23.56,23.56-19.77,19.77-39.56,39.52-59.28,59.33-4.25,4.26-4.22,4.52,.64,7.38,9.56,5.62,19.22,11.07,28.85,16.56,.96,.55,2.07,.84,3.66,1.47Zm-3.33,213.35c-2.18,1.02-3.93,1.73-5.57,2.64-7.37,4.04-14.72,8.13-22.07,12.22-7.22,4.01-7.25,4.05-1.01,10.31,19.18,19.23,38.39,38.44,57.6,57.64,7.03,7.03,14.06,14.07,21.14,21.06,6.59,6.5,6.69,6.52,10.97-1.02,4.34-7.64,8.28-15.51,12.88-22.99,2.16-3.51,2.31-5.72-.85-8.65-6.74-6.24-13.11-12.86-19.64-19.32-15.49-15.35-30.97-30.72-46.5-46.03-2.12-2.09-4.56-3.86-6.94-5.85Zm400.64,18.34c-1.53-.66-3.03-1.17-4.4-1.92-8.72-4.79-17.47-9.51-26.07-14.51-3.64-2.11-6.29-1.56-9.09,1.39-5,5.28-10.23,10.35-15.36,15.51-17.27,17.38-34.48,34.83-51.87,52.09-3.49,3.46-4.62,6.07-1.48,10.7,4.71,6.93,8.34,14.59,12.57,21.85,3.62,6.22,3.84,6.3,8.71,1.53,21.58-21.17,43.09-42.42,64.61-63.65,6-5.92,11.95-11.88,17.9-17.85,1.05-1.06,1.97-2.25,4.49-5.15ZM131.25,47.36c3.59,6.33,6.93,11.09,9.11,16.33,2.95,7.1,7.61,8.99,15.16,8.93,44.86-.38,89.73-.19,134.59-.18q21.61,0,30.51-19.53c.16-.35,.38-.67,.56-1,1.72-3.1,.03-4.18-2.74-4.35-2.68-.16-5.37-.08-8.05-.09-39.11-.04-78.23-.08-117.34-.11-19.91-.01-39.82,0-61.81,0Zm310.74,52.21c-.82-1.03-1.65-2.29-2.69-3.34-7.01-7.09-14.06-14.15-21.12-21.2-20.62-20.6-41.29-41.16-61.84-61.83-2.63-2.65-4.1-2.58-5.92,.68-4.67,8.36-9.59,16.57-14.3,24.9-4.19,7.42-4.11,7.43,2.1,13.1,16.98,15.51,33.89,31.11,50.95,46.54,7.34,6.64,14.96,12.97,22.46,19.44,9.08-4.95,18.17-9.89,27.25-14.85,.67-.36,1.43-.66,1.94-1.19,.48-.5,.68-1.26,1.18-2.27ZM216.45,237.8l-1.27-1.29c-6.16,3.47-12.31,6.97-18.49,10.4-27.13,15.08-54.28,30.11-81.39,45.21-6.35,3.54-6.53,3.87-1.69,8.96,12.41,13.07,25,25.98,37.62,38.86,4.73,4.82,5.05,4.8,8.58-1.43,13.07-22.99,26.01-46.05,38.97-69.09,5.92-10.52,11.78-21.08,17.67-31.62Zm-83.83,165.92c1.81,.12,3.69,.34,5.57,.34,58.28,0,116.55-.01,174.83-.06,10.8,0,10.18,.18,5.84-9.68-4.27-9.71-10.31-13.07-21.17-12.9-44.85,.69-89.71,.29-134.57,.28q-22.07,0-30.63,20.58c-.12,.28,.05,.68,.13,1.44Zm103.8-169.03c1.88,3.81,2.42,5.05,3.08,6.21,6.77,11.98,13.6,23.91,20.33,35.91,11.77,20.99,23.46,42.02,35.24,63,2.76,4.91,3.1,4.97,7.19,.74,9.84-10.17,19.58-20.43,29.36-30.67,3.17-3.32,6.39-6.59,9.43-10.04,3.45-3.91,3.21-4.86-1.43-7.79-.97-.61-2.03-1.07-3.03-1.63-24.01-13.44-48.01-26.91-72.04-40.32-8.51-4.75-17.1-9.38-28.12-15.42Zm169.24-8.06h-.12c0-27.64,.02-55.29,0-82.93-.01-14.2,.23-13.59-12.09-7.92-8.6,3.96-11.19,9.32-11.09,18.59,.46,45.3,.16,90.61,.15,135.92q0,19.56,17.43,28.24c.69,.34,1.42,.6,2.07,1,2.29,1.38,3.49,.67,3.59-1.9,.1-2.68,.08-5.37,.08-8.06,0-27.64,0-55.29,0-82.93ZM73.33,184.26h.55c0-11.87,.17-23.75-.12-35.62-.07-2.77-.86-6.63-2.76-8.05-5.17-3.85-11.06-6.75-16.8-9.75-.68-.36-2.97,.73-3.24,1.56-.57,1.75-.33,3.77-.36,5.69-.66,41.34-1.37,82.68-1.94,124.02-.25,18-.28,36.01-.27,54.01,0,5.18,.76,5.56,5.11,3.27,3.38-1.78,6.51-4.12,10.02-5.52,5.87-2.34,7.57-6.38,7.66-12.49,.53-39.04,1.4-78.08,2.15-117.11Zm165.71,31.1c1.76-1.08,3.03-1.92,4.35-2.66,15.38-8.59,30.78-17.14,46.14-25.75,16.69-9.36,33.33-18.82,50.03-28.16,6.4-3.58,7.28-4.09,1.28-9.18-13.43-11.38-26.53-23.16-39.84-34.68-5.11-4.42-5.31-4.34-9.05,2.18-17.33,30.21-34.61,60.45-51.88,90.7-.94,1.65-1.81,3.39-2.37,5.2-.17,.55,.8,1.46,1.34,2.36Zm-20.57,1.88c-.6-2.28-.66-3.39-1.14-4.25-10.68-19.02-21.38-38.01-32.12-57-7.53-13.32-15.01-26.68-22.72-39.9-3.29-5.63-4.3-5.82-8.42-1.87-12.98,12.45-25.77,25.09-38.68,37.6-2.96,2.87-2.85,4.62,1.03,6.78,11.71,6.49,23.17,13.41,34.78,20.08,22.06,12.69,44.16,25.32,67.27,38.56Zm7.78,159.06c21.51,0,43.03,0,64.54,0,17.48,0,17.2,.16,9.11-15.37-2.86-5.49-5.87-7.63-12.31-7.55-36.87,.44-73.76,.31-110.64,.36q-18.77,.02-27.17,16.03c-2.94,5.61-2.56,6.46,3.86,6.48,24.2,.09,48.4,.04,72.61,.04ZM77.98,255.63h-.14c0,11.14-.32,22.29,.14,33.4,.21,5.09-3.41,10.56,1.09,15.34,4.67-2.48,9.26-5.13,14.04-7.38,4.3-2.02,6.14-4.87,6.23-9.83,.37-21.47,1.25-42.92,1.74-64.39,.41-17.66,.16-35.33,.93-52.97,.5-11.55,1.09-11.53-8.56-16.88-2.01-1.11-4.06-2.16-6.11-3.2-6.61-3.37-6.69-3.37-6.86,3.51-.86,34.13-1.67,68.26-2.5,102.39Zm297.86,49.09c0-4.67,0-8.42,0-12.18,0-12.65,0-25.3,.01-37.96,.01-32.97,.05-65.94,.02-98.91,0-9.7-.09-9.7-9-4.89-.34,.18-.7,.32-1.03,.51q-11.39,6.33-11.37,19.45c.02,35.66-.08,71.31,.06,106.97,.07,18.65-2.18,14.18,13.18,22.76,2.26,1.26,4.58,2.41,8.12,4.26ZM227.99,79.02c-22.63,0-45.27,0-67.9,0q-11.2,0-5.49,10.09c.19,.33,.41,.65,.6,.98,6.03,10.37,6.03,10.42,17.72,10.49,20.33,.11,40.67,.08,61,.22,17.23,.11,34.47,.46,51.7,.48,2.83,0,6.95-.15,8.26-1.9,3.86-5.17,6.7-11.12,9.67-16.9,.3-.58-1.12-2.94-1.93-3.04-3.41-.43-6.88-.39-10.33-.4-21.1-.02-42.2-.01-63.3-.01Zm154.16,55.42c1.09-.45,2.17-.79,3.13-1.33,4.99-2.8,9.94-5.67,14.92-8.48,3.89-2.19,3.22-4.55,.41-7.12-1.69-1.55-3.28-3.22-4.97-4.77-18.57-17.08-37.11-34.19-55.75-51.18-3.36-3.07-7.16-5.66-10.75-8.47-2.57,4.02-5.17,8.01-7.7,12.05-1.22,1.94-2.11,4.11-3.5,5.92-2.52,3.27-2.66,5.7,.83,8.7,20.27,17.44,40.35,35.11,60.51,52.68,.83,.73,1.83,1.27,2.87,1.99Zm-304.81,1.91c1.57-1.28,3.43-2.56,5.01-4.12,9.79-9.74,19.51-19.55,29.26-29.32,7.86-7.87,15.85-15.62,23.5-23.69,1.58-1.67,3.27-5.18,2.55-6.75-3.04-6.57-6.85-12.81-10.74-18.94-.53-.84-3.45-1.05-4.61-.4-1.93,1.09-3.36,3.09-4.96,4.74-17.34,17.9-34.69,35.79-51.97,53.75-3.37,3.5-6.43,7.3-9.64,10.96,4.07,2.76,8.09,5.6,12.22,8.26,2.9,1.87,5.94,3.5,9.38,5.51Zm302.69,178.57c-1.09,.85-2.71,1.81-3.95,3.14-15.18,16.24-30.34,32.49-45.42,48.83-4.1,4.44-10.58,8.93-11.04,13.85-.47,5.07,4.97,10.76,8.01,16.07,2.97,5.18,3.14,5.18,7.95,.34,19.75-19.86,39.46-39.76,59.18-59.65q9.37-9.45-1.94-15.62c-4.03-2.2-8.07-4.39-12.79-6.97Zm-243.53,65.28c-1.87-2.29-3.36-4.46-5.19-6.3-15.91-16.04-31.6-32.31-47.91-47.93-11.74-11.24-7.41-12.22-23.47-2.58-.98,.59-2.02,1.09-3,1.7-5.31,3.28-5.49,3.6-.87,8.21,21.14,21.08,42.37,42.09,63.63,63.06,4.58,4.51,4.83,4.48,8.16-.92,3-4.86,5.65-9.93,8.65-15.24Zm235.98-68.95c-.56-.51-1.04-1.12-1.67-1.49-4.95-2.87-9.93-5.67-14.88-8.54-3.34-1.94-5.83-1.72-8.72,1.46-10.55,11.59-21.51,22.8-32.2,34.27-4.37,4.68-8.44,9.64-12.64,14.48,3.05,5.71,5.97,11.49,9.21,17.1,2.71,4.68,3.78,4.84,7.56,.89,16.66-17.39,33.21-34.88,49.77-52.36,1.04-1.1,1.87-2.42,2.7-3.69,.41-.62,.59-1.39,.88-2.1Zm2.13-173.88c-.97-1.03-1.93-2.23-3.07-3.23-5.48-4.79-11.03-9.51-16.53-14.29-12.45-10.82-24.87-21.68-37.34-32.47-5.2-4.5-6.25-4.42-9.61,1.01-2.42,3.91-4.26,8.18-6.74,12.04-2.1,3.27-1.48,5.49,1.34,7.87,12.03,10.11,23.91,20.39,35.97,30.47,4.88,4.08,10.07,7.8,15.12,11.68,6.11-3.19,12.23-6.37,18.33-9.58,.67-.35,1.37-.79,1.82-1.38,.39-.5,.44-1.26,.71-2.13Zm-222.03,214.4c-1.74-2.19-3.17-4.38-4.97-6.21-10.98-11.17-22.13-22.18-33.06-33.4-13.41-13.77-13.34-13.84-29.54-2.88-5.24,3.55-5.34,3.64-.83,8.17,15.11,15.14,30.28,30.23,45.48,45.28,3.22,3.19,6.66,6.17,10,9.24,2.69-3.98,5.45-7.91,8.06-11.94,1.64-2.53,3.06-5.19,4.86-8.26Zm2.13-248.94c-.7-1.64-1.18-3.07-1.89-4.38-2.01-3.71-4.01-7.42-6.19-11.02-3.58-5.94-4.27-6.1-9.02-1.38-12.51,12.44-24.91,24.99-37.35,37.51-4.33,4.35-8.77,8.6-12.88,13.15-.95,1.06-1.44,4.31-.95,4.61,5.53,3.4,11.16,6.71,17.07,9.35,1.39,.62,4.42-.82,5.87-2.19,13.64-12.92,27.14-25.99,40.57-39.13,1.86-1.82,3.13-4.24,4.77-6.51Z"/></svg>