<?xml version="1.0" encoding="UTF-8"?><svg id="a" xmlns="http://www.w3.org/2000/svg" viewBox="0 0 492 432.43"><defs><style>.b{fill:#1e4162;}</style></defs><path class="b" d="M492,75.93c-3.49,11.58-7.12,23.12-10.45,34.75-15.73,54.85-31.38,109.72-47.07,164.58-2.79,9.77-7.14,13.04-17.3,13.04-80.55,0-161.09,.06-241.64-.13-5.35-.01-8.18,1.36-10.41,6.38-5.47,12.31,.7,22.56,14.22,22.57,78.94,.02,157.89,0,236.83,.01,11.48,0,18.2,5.38,18.14,14.5-.06,9.1-6.74,14.33-18.32,14.33-15.34,0-30.67,0-47.06,0,26.05,8.27,39.74,27.29,36.13,49.07-3.71,22.36-21.66,37.73-43.66,37.39-21.53-.33-39.58-16.75-42.14-38.6-2.02-17.19,7.11-40.62,36.3-47.59H224.41c24.67,7.17,38.75,26.25,35.73,47.91-3.1,22.24-21.07,38.26-42.93,38.29-21.84,.03-39.91-16.01-43.03-38.18-3.05-21.68,10.82-40.53,35.19-48.29-10.62,0-21.25,.07-31.87-.01-20.9-.17-37.9-13.82-42.47-34.21-2.37-10.59-.92-20.88,4.62-30.12,3.77-6.28,3.81-11.94,1.8-18.88-22.09-76.48-43.85-153.05-65.71-229.6-.35-1.23-.78-2.44-1.38-4.3-1.5,0-3.21,0-4.91,0-17.77,0-35.55,.02-53.32,0C6.49,28.82-.09,22.85,0,14.28,.09,5.9,6.59,.04,15.97,.02c22.58-.03,45.16-.03,67.74,0,8.76,.01,13.6,3.68,16.06,12.2,4.33,15.03,8.58,30.09,12.95,45.44h6.35c118.02,0,236.03,.07,354.05-.13,8.84-.01,15.14,2.62,18.88,10.7v7.69Zm-33.62,10.88H121.04c16.51,57.78,32.91,115.18,49.28,172.45h238.78c16.42-57.48,32.8-114.78,49.27-172.45ZM217.56,374.8c-7.75-.22-14.51,6.12-14.79,13.88-.28,7.76,5.98,14.55,13.75,14.91,7.93,.37,14.87-6.14,15.04-14.11,.16-7.76-6.22-14.45-14-14.68Zm159.1,14.59c.11-7.76-6.31-14.42-14.08-14.59-7.75-.17-14.47,6.21-14.71,13.96-.24,7.95,6.37,14.79,14.32,14.83,7.77,.04,14.36-6.43,14.47-14.21Z"/></svg>