<?xml version="1.0" encoding="UTF-8"?><svg id="a" xmlns="http://www.w3.org/2000/svg" viewBox="0 0 470 470.06"><defs><style>.b{fill:#1e4162;}</style></defs><path class="b" d="M235.19,.08c43.52,0,87.04-.13,130.57,.05,23.46,.1,43.88,8.67,62.36,22.88,16.69,12.84,28.2,29.2,35.64,48.7,3.79,9.94,6.2,20.15,6.2,30.84,.01,87.41,.12,174.82-.06,262.23-.04,21.8-7.63,41.23-20.36,58.88-17.07,23.67-40.22,37.73-68.46,43.42-9.56,1.93-19.5,2.77-29.27,2.8-77.17,.22-154.34,.28-231.51,.04-26.63-.08-52.1-5.16-74.07-21.6-23.51-17.59-38.21-40.94-43.83-69.64-1.87-9.57-2.2-19.56-2.23-29.36C0,272.5-.13,195.69,.21,118.89c.09-20.82,2.89-41.38,13.1-60.18C30.83,26.47,58.03,7.59,93.68,.48c3.89-.78,8.02-.38,12.04-.39,43.16-.02,86.31-.01,129.47-.02Zm80.38,307.29V163.58c-2.18-.21-3.92-.52-5.66-.52-49.36-.03-98.71-.04-148.07,.04-2.39,0-4.77,.9-6.9,1.33-2.03,14.63-1.4,135.36,.7,142.94h159.93ZM236.22,6.49c-35.15,21.66-91.38,61.08-96.97,67.88,9.55,9.92,92.23,73.98,100.14,77.4,32.49-25.76,65.19-51.68,98.53-78.11-34.2-22.59-67.82-44.79-101.7-67.17Zm91.2,227.8c25.25,35.69,50.03,70.7,75.69,106.96,20.26-35.69,39.95-70.36,59.71-105.16-18.56-36.2-36.92-72-55.94-109.09-27,36.46-52.97,71.51-79.46,107.28ZM66.87,341.23c26.06-38.3,51.2-75.25,76.69-112.69-25.69-34.07-50.8-67.36-76.13-100.95-1.55,1.71-2.47,2.4-2.97,3.32-17.81,32.64-35.51,65.33-53.44,97.91-2.26,4.11-1.82,7.36,.29,11.18,12.85,23.3,25.56,46.68,38.34,70.02,5.41,9.88,10.88,19.72,17.23,31.22Zm168.34,117.39c33.78-20.85,67.76-39.77,101.95-61.07-33.82-26.41-66.42-51.86-99.72-77.86-33.39,25.73-66.17,50.98-100.19,77.19,33.58,21.16,65.88,41.52,97.96,61.73ZM146.66,155.27c0-2.06,.26-3.52-.04-4.84-4.96-21.95-10.27-43.82-14.85-65.84-1.26-6.08-4.01-9.42-9.45-12.06-22.01-10.66-43.82-21.75-65.71-32.67-2.4-1.2-4.81-2.36-8.04-3.95,6.68,27.18,13.27,52.83,19.08,78.64,1.24,5.52,3.52,7.86,8.52,9.72,8.52,3.17,16.65,7.38,24.99,11.06,14.91,6.58,29.85,13.09,45.49,19.94ZM45.92,428.82c9.2-3.68,16.28-6.5,23.35-9.36,17.22-6.95,34.4-14.01,51.67-20.83,6.26-2.48,9.73-6.12,11.01-13.31,2.86-16.06,7.01-31.9,10.62-47.83,1.49-6.58,2.92-13.17,4.65-20.99-2.82,.91-4.13,1.23-5.36,1.75-20.47,8.64-40.71,17.9-61.51,25.67-8.59,3.21-12.61,7.88-14.89,16.45-5.41,20.37-11.82,40.48-17.79,60.71-.58,1.95-.91,3.97-1.75,7.75ZM426.42,39.5c-25.71,11.37-49.2,22.02-72.94,32.08-6.46,2.74-9.37,7.03-11.02,13.38-5,19.28-10.32,38.48-15.53,57.71-.92,3.39-3.19,6.64-.78,10.84,1.28-.37,2.62-.62,3.85-1.14,9.36-3.98,18.72-7.96,28.03-12.04,13.65-5.97,27.22-12.13,40.92-17.99,4.39-1.88,6.87-4.57,7.91-9.43,1.73-8.14,4.29-16.09,6.44-24.14,4.19-15.67,8.35-31.35,13.12-49.28Zm4.12,386.4c-9.16-24.04-17.59-46.11-25.95-68.2-2.28-6.04-5.81-10.22-12.14-12.96-19.72-8.52-39.09-17.85-58.65-26.75-3.13-1.43-6.52-2.29-9.86-3.44-.29,1.54-.66,2.28-.5,2.87,6.38,23.46,12.97,46.87,19.14,70.39,1.56,5.95,4.49,9.53,10.54,10.92,3.52,.8,6.83,2.47,10.27,3.67,21.86,7.66,43.73,15.3,67.16,23.5Zm-191.06,36.65c1.78,.44,2.48,.76,3.18,.76,41.67,.03,83.34,.12,125.01-.09,5.1-.02,10.2-1.64,16.05-2.64-13.91-20.21-27.09-39.34-40.84-59.3-34.66,20.54-68.69,40.7-103.41,61.28ZM342.04,69.51c14.06-20.98,27.58-41.15,42.03-62.7-13.63-.66-25.95-1.66-38.27-1.76-29.27-.25-58.54-.08-87.81-.08h-12.79c33.1,22.06,64.55,43.02,96.84,64.55Zm-112.88,393.86c-32.1-21.55-63.34-42.62-96.49-61.97-13.8,20.08-26.95,39.22-40.07,58.3,4.7,4.54,10.01,3.61,15.02,3.62,38,.06,75.99,.04,113.99,.04,2.52,0,5.04,0,7.56,0ZM225.48,6.2c-1.29-.62-1.86-1.13-2.43-1.13-39.4-.04-78.79-.09-118.19,.07-3.39,.01-6.77,1.47-11.19,2.5,13.41,21.04,26.05,40.87,39.36,61.77,31.19-21.32,61.64-42.14,92.45-63.2Zm234.21,381.19c4.34-9.64,5.24-18.97,5.3-28.22,.25-35.04,.11-70.08,.08-105.12,0-2.22-.33-4.45-.71-9.12-19.52,34.49-37.73,66.67-56.23,99.38,17.34,14.49,34,28.41,51.56,43.09ZM62.91,122.16c-17.53-14.42-34.2-28.14-51.7-42.55-2.42,9.54-4.57,17.84-4.54,26.67,.11,36.12,.04,72.24,.03,108.36,0,2.73,0,5.46,0,10.84,19.56-35.95,37.8-69.47,56.21-103.31Zm399.61-37.78c-11.03,5.59-18.91,11.94-26.98,17.84-8.35,6.1-18.17,10.39-25.24,18.86,18.03,35.03,35.82,69.6,54.8,106.47,0-6.08,0-9.61,0-13.15,0-32.83,.18-65.65-.11-98.47-.08-9.71-1.47-19.4-2.46-31.55ZM62.69,345.72c-18.82-34.59-36.76-67.58-55.45-101.94-.3,2.87-.52,3.94-.52,5.01-.01,38.31-.11,76.63,.12,114.94,.03,5.86,1.54,11.71,2.54,18.71,18.35-12.64,35.35-24.35,53.31-36.72ZM138.89,82.45c-.39,14.69,4.73,26.47,6.7,38.71,1.99,12.38,5.76,24.47,8.67,36.37h80.36c-32.11-25.19-63.17-49.55-95.73-75.08Zm-2.15,307.64c33.36-25.7,65.06-50.13,97.91-75.44h-80.5c-6.56,24.33-11.08,49.07-17.42,75.44Zm12-155.3l-1.68-1.12c-23.39,34.31-46.78,68.62-70.16,102.93,25.27-7.16,48.46-17.81,71.84-27.56v-74.24Zm91.68,80.03c33.17,25.84,64.74,50.42,97.12,75.64-7.1-25.97-13.86-50.71-20.67-75.64h-76.45Zm76.27-157.18c6.74-24.81,13.18-48.48,19.61-72.16l-2-1.26c-31.02,23.72-61.41,48.26-92.83,73.41h75.22Zm6.44,4.3v68.44c24.91-33.67,49.14-66.44,73.38-99.21l-1.24-1.22c-23.89,10.59-47.78,21.19-72.15,31.99Zm68.13,176.14c.51-.57,1.01-1.13,1.52-1.7-23.08-31.86-45.31-64.33-69.66-97.99v68.51c22.77,10.42,45.45,20.8,68.14,31.18ZM80.62,132.41l-1.25,1.38c22.84,30.44,45.68,60.87,69.59,92.74,0-20.5-.13-39.07,.09-57.64,.06-4.74-1.72-7.29-5.98-9.1-14.37-6.11-28.62-12.48-42.92-18.76-6.52-2.86-13.02-5.75-19.54-8.62ZM389.64,459.07c16.69-5.24,31.03-12.46,43.49-26.06-26.99-9.45-52.94-18.55-80.85-28.32,13.17,19.17,25.05,36.46,37.36,54.38Zm-303.86-.44c17.37-22.17,32.98-46.01,35.23-53.89-26.22,10.68-52.36,21.33-79.03,32.19,16.64,14.41,31.58,21.68,43.8,21.7Zm-47.98-24.92c7.94-26.57,15.42-51.55,22.85-76.53,.17-.59-.15-1.32-.35-2.73-16.59,11.41-32.91,22.63-49.43,33.99,4.93,17.23,13.94,31.37,26.94,45.28ZM42,33.53c-12.02,6.81-24.12,25.91-28.4,40.71,7.66,6.23,15.41,12.8,23.44,18.98,7.73,5.95,14.28,13.57,24.04,18.59-6.56-26.92-12.79-52.44-19.09-78.29ZM389.29,9.22c-12.67,19.03-24.88,37.37-38.35,57.61,14.97-6.77,27.52-12.46,40.08-18.14,12.37-5.6,25.23-10.19,37.76-17.44-11.78-10.99-24.54-17.4-39.49-22.03ZM121.58,65.3l.98-1.28c-3.45-5.53-6.89-11.07-10.37-16.58-6.98-11.07-13.87-22.2-21.03-33.15-3.69-5.63-5.48-6.2-11.96-4.06-11.79,3.89-22.75,9.41-33.48,18.06,25.81,12.6,50.83,24.81,75.86,37.02Zm295.13,42.73c13.26-9.22,26.58-18.36,39.75-27.71,3.2-2.27,2.85-5.9,1.26-8.92-3.88-7.36-7.94-14.64-12.27-21.74-3.09-5.06-6.46-10.05-12.13-13.3-6.08,23.98-13.17,46.97-16.62,71.68Zm21.01,320.3c10.49-9.88,15.8-21.66,21.04-34.2-16.29-13.56-32.27-26.85-50.17-41.74,10.27,26.77,19.56,51,29.13,75.95Z"/></svg>