<?xml version="1.0" encoding="UTF-8"?><svg id="a" xmlns="http://www.w3.org/2000/svg" viewBox="0 0 496 418.19"><defs><style>.b{fill:#1e4162;}</style></defs><path class="b" d="M496,111.11c-1.07,1.14-2.25,2.19-3.19,3.43-71.84,94.09-143.66,188.19-215.48,282.29-1.15,1.51-2.34,2.98-4.13,4.16,4.92-15.65,9.83-31.3,14.77-46.94,25.06-79.34,50.17-158.67,75.08-238.06,1.4-4.46,3.22-5.89,7.92-5.87,41.68,.18,83.35,.06,125.03,.03v.97Z"/><path class="b" d="M247.21,418.07c-32.36-102.45-64.72-204.9-97.18-307.68h195.62c-32.48,102.82-64.85,205.31-97.22,307.81l-1.22-.13Z"/><path class="b" d="M222.54,402.3C147.93,304.53,74.19,207.91,0,110.7c1.73-.2,2.88-.46,4.02-.46,40.86-.02,81.72,0,122.58-.06,2.7,0,4.28,.39,5.24,3.45,29.99,95.34,60.1,190.64,90.19,285.95,.14,.43,.17,.9,.51,2.71Z"/><path class="b" d="M161.45,91.45c28.84-28.88,57.75-57.82,86.34-86.44,28.62,28.66,57.53,57.6,86.34,86.44H161.45Z"/><path class="b" d="M89.14,0H223.35c-27.96,27.96-56.29,56.29-84.76,84.76C122.68,57.48,106.15,29.14,89.14,0Z"/><path class="b" d="M406.5,.06c-16.92,29-33.44,57.33-49.53,84.91C328.48,56.5,300.15,28.18,272.03,.06h134.47Z"/><path class="b" d="M121.31,91.61H.99C24.74,63.09,47.98,35.2,71.74,6.67c16.57,28.4,32.84,56.27,49.57,84.93Z"/><path class="b" d="M494.65,91.54h-120.22c16.59-28.44,32.87-56.35,49.5-84.86,23.63,28.35,46.9,56.27,70.72,84.86Z"/></svg>