<?xml version="1.0" encoding="UTF-8"?><svg id="a" xmlns="http://www.w3.org/2000/svg" viewBox="0 0 471.76 492"><defs><style>.b{fill:#1e4162;}</style></defs><path class="b" d="M231.07,492c-12.95-2.09-22.8-9.33-31.68-18.5-7.01-7.24-14.58-13.95-21.69-21.11-4.71-4.75-10.04-6.25-16.59-5.19-12.16,1.97-24.36,3.73-36.58,5.25-27.01,3.36-46.56-11.63-51.01-38.8-1.91-11.68-4.06-23.32-5.99-35-1.04-6.33-4.32-10.71-10.09-13.65-11.12-5.66-22.12-11.54-33.09-17.49-22.81-12.37-30.45-35.83-19.3-59.27,5.36-11.26,10.81-22.48,16.46-33.6,3.01-5.93,2.98-11.48-.03-17.39-5.58-10.98-10.94-22.06-16.27-33.16-11.44-23.83-3.71-47.38,19.62-59.91,10.71-5.75,21.37-11.6,32.24-17.04,6.35-3.17,9.54-7.98,10.63-14.86,1.95-12.32,3.99-24.64,6.48-36.86,5.28-25.96,25.75-39.87,51.9-35.76,12.17,1.91,24.38,3.55,36.57,5.31,5.62,.81,10.35-.85,14.42-4.85,9.15-8.97,18.35-17.88,27.62-26.72,18.74-17.9,43.57-17.9,62.32-.02,9.04,8.62,18.09,17.24,26.91,26.08,4.87,4.88,10.32,6.36,17.03,5.27,12.16-1.98,24.35-3.83,36.58-5.24,26.63-3.06,45.69,11.29,50.49,37.76,2.11,11.64,4.2,23.3,6,34.99,1.06,6.88,4.26,11.7,10.6,14.87,10.72,5.37,21.22,11.18,31.81,16.82,24.09,12.86,31.69,36.35,19.71,60.97-5.11,10.5-10.04,21.08-15.45,31.42-3.43,6.55-3.5,12.55-.07,19.13,5.61,10.78,10.82,21.76,16.04,32.74,11.18,23.48,3.58,46.89-19.23,59.28-10.82,5.88-21.65,11.76-32.66,17.26-6.53,3.26-9.7,8.21-10.79,15.27-1.87,12.17-3.95,24.32-6.4,36.38-5.28,26.03-25.64,39.96-51.8,35.9-12.17-1.89-24.38-3.52-36.57-5.3-5.62-.82-10.38,.72-14.46,4.73-7.42,7.3-15.15,14.29-22.39,21.76-8.89,9.17-18.73,16.41-31.68,18.5h-9.61Zm122.52-67.32c8.46,.25,14.36-4.23,15.84-11.92,2.11-10.99,4.46-21.98,5.75-33.08,2.31-19.86,11.96-33.85,30.29-42.19,9.73-4.43,19.01-9.88,28.45-14.94,9.52-5.1,11.9-12.34,7.23-22.01-5.42-11.23-10.83-22.47-16.45-33.6-7.08-14.01-7.08-27.87,0-41.89,5.47-10.85,10.7-21.82,16.01-32.75,5.27-10.84,3.04-17.62-7.64-23.3-11.01-5.85-22.05-11.66-33.06-17.54-12.62-6.74-20.62-16.96-23.21-31.16-2.44-13.37-4.71-26.77-7.22-40.13-1.76-9.37-8.29-14.02-17.64-12.71-12.2,1.7-24.4,3.37-36.56,5.32-16.18,2.6-29.99-1.6-41.62-13.3-8.46-8.52-17.22-16.74-25.86-25.08-8.43-8.14-15.66-8.09-24.2,.15-8.98,8.68-17.94,17.38-26.93,26.05-10.15,9.79-22.16,14.4-36.3,12.54-13.32-1.75-26.62-3.65-39.92-5.58-9.97-1.45-16.55,2.96-18.42,12.83-2,10.53-4.34,21.03-5.51,31.66-2.22,20.1-12.04,34.15-30.52,42.56-9.59,4.37-18.72,9.73-28.03,14.71-9.82,5.25-12.17,12.37-7.35,22.32,5.44,11.22,10.86,22.46,16.45,33.6,6.94,13.86,6.95,27.6,.02,41.46-5.51,11.01-10.84,22.11-16.22,33.18-5.13,10.55-2.88,17.44,7.5,22.98,10.87,5.79,21.71,11.62,32.64,17.3,14.13,7.33,22.05,18.89,24.51,34.55,1.91,12.16,4.13,24.28,6.42,36.37,2,10.58,8.41,14.86,18.96,13.26,12.18-1.85,24.39-3.48,36.57-5.28,15.86-2.34,29.28,2.36,40.62,13.63,8.4,8.36,17,16.51,25.53,24.74,8.54,8.24,15.76,8.29,24.19,.16,8.41-8.12,17-16.06,25.16-24.42,12.2-12.49,26.63-16.76,43.74-13.74,12.43,2.2,25.01,3.61,36.8,5.26Z"/><path class="b" d="M344.35,152.61c-1.27,2.85-2.4,5.77-3.88,8.5-.74,1.36-2.09,2.4-3.22,3.53-60.89,60.9-121.8,121.79-182.67,182.71-3.48,3.48-7.09,6.49-12.39,6.36-5.62-.14-9.86-2.65-12.43-7.59-2.67-5.13-2.21-10.21,1.19-14.91,1.02-1.41,2.31-2.65,3.56-3.89,60.89-60.9,121.8-121.8,182.67-182.72,3.48-3.48,7.09-6.43,12.39-6.37,7.78,.09,14,6.25,14.78,14.37Z"/><path class="b" d="M178.9,222.24c-28.9-.16-51.92-23.54-51.69-52.53,.22-28.43,23.97-51.75,52.4-51.44,28.5,.3,51.62,23.82,51.5,52.39-.12,28.51-23.63,51.74-52.2,51.58Zm.41-75.41c-13.03-.08-23.51,10.13-23.8,23.19-.29,12.83,10.74,23.99,23.67,23.96,12.8-.04,23.49-10.75,23.53-23.59,.04-12.95-10.41-23.48-23.4-23.56Z"/><path class="b" d="M292.76,269.77c28.73,.07,51.78,23.17,51.8,51.92,.02,28.68-23.68,52.26-52.29,52.02-28.47-.24-51.7-23.78-51.6-52.28,.11-28.58,23.46-51.73,52.09-51.66Zm-.32,75.38c13.06,.08,23.5-10.09,23.8-23.18,.3-12.86-10.68-23.97-23.66-23.94-12.83,.03-23.49,10.71-23.54,23.57-.04,12.97,10.4,23.48,23.4,23.56Z"/></svg>