<?xml version="1.0" encoding="UTF-8"?><svg id="a" xmlns="http://www.w3.org/2000/svg" viewBox="0 0 455.67 486"><defs><style>.b{fill:#1e4162;}</style></defs><path class="b" d="M384.31,299.34c0-58.36,0-116.71,0-175.07,0-9.54,1.9-11.44,11.46-11.44,16.46,0,32.93-.02,49.39,0,8.1,.02,10.5,2.41,10.5,10.55,.01,117.36,.02,234.73,0,352.09,0,8.05-2.49,10.47-10.6,10.48-16.79,.03-33.58,.03-50.37,0-8.09-.01-10.38-2.34-10.38-10.58-.01-58.68,0-117.36,0-176.05Zm15.38-171.08V470.24h40.33V128.26h-40.33Z"/><path class="b" d="M271.94,329c0-48.42,0-96.84,0-145.26,0-9.19,2.07-11.31,11.12-11.32,16.47-.02,32.93-.02,49.4,0,8.42,.01,10.86,2.42,10.86,10.75,.01,97.33,0,194.65,0,291.98,0,8.38-2.42,10.8-10.79,10.81-16.79,.02-33.58,.03-50.37,0-7.82-.02-10.2-2.41-10.21-10.24-.01-48.91,0-97.81,0-146.72Zm55.71,141.37V188.04h-40.41V470.38h40.41Z"/><path class="b" d="M0,104.43C.12,46.44,46.96-.15,105,0c57.54,.15,104.41,47.27,104.27,104.83-.14,57.78-47.4,104.73-105.16,104.48C46.43,209.06-.11,162.17,0,104.43Zm104.44,89.6c49.29,.15,89.32-39.61,89.51-88.91,.19-49.66-39.35-89.59-89.03-89.89C55.58,14.93,15.23,54.95,15.03,104.39c-.2,49.33,39.86,89.49,89.41,89.63Z"/><path class="b" d="M159.53,358.55c0-38.48,0-76.96,0-115.44,0-8.82,2.16-11,10.93-11,16.63-.01,33.26-.02,49.89,0,8.08,.01,10.56,2.48,10.56,10.5,0,77.61,0,155.22,0,232.83,0,8.02-2.49,10.52-10.55,10.53-16.79,.03-33.59,.03-50.38,0-8.11-.01-10.45-2.38-10.45-10.51,0-38.97,0-77.94,0-116.9Zm15.46-110.95v222.71h40.23V247.6h-40.23Z"/><path class="b" d="M47.09,388.76c0-28.84,0-57.67,0-86.51,0-8.07,2.42-10.51,10.47-10.52,16.94-.03,33.89-.03,50.83,0,7.46,.02,10.08,2.61,10.08,9.95,.02,58.16,.02,116.33,0,174.49,0,7.07-2.66,9.76-9.75,9.79-17.27,.06-34.54,.06-51.81,0-7.32-.02-9.81-2.67-9.82-10.2-.01-29,0-58,0-87Zm55.93-81.31H62.73v162.82h40.3v-162.82Z"/><path class="b" d="M82.03,67.83v29.15c1.85,0,3.57,0,5.28,0,13.69,0,27.39,0,41.08,0,7.2,0,10.77,2.64,10.68,7.8-.09,4.98-3.59,7.54-10.48,7.55-15.31,.02-30.62,0-46.37,0v28.84c1.65,.09,3.37,.25,5.09,.25,14.35,.02,28.69,0,43.04,.02,1.63,0,3.27-.05,4.88,.13,4.56,.5,7.28,3.5,7.12,7.73-.15,3.92-3.01,7.15-7.21,7.17-20.38,.13-40.75,.15-61.13,0-4.89-.04-7.35-3.33-7.36-9.02-.03-25.92-.02-51.84-.02-77.76,0-2.93-.08-5.87,.03-8.8,.19-5.34,2.88-8.09,8.28-8.11,19.72-.07,39.45-.06,59.17,0,5.14,.02,8.35,3.1,8.29,7.58-.06,4.47-3.17,7.38-8.49,7.42-15.16,.11-30.32,.05-45.48,.05-1.94,0-3.88,0-6.4,0Z"/></svg>