<?xml version="1.0" encoding="UTF-8"?><svg id="a" xmlns="http://www.w3.org/2000/svg" viewBox="0 0 478.76 474"><defs><style>.b{fill:#1e4162;}</style></defs><path class="b" d="M478.65,237.15c0,47.33,.31,94.67-.1,141.99-.38,43.68-28.13,79.71-69.96,91.06-8.92,2.42-18.47,3.53-27.74,3.56-93.71,.25-187.42,.37-281.12,.07-47.52-.15-83.53-26.62-95.52-69.94-2.71-9.79-3.94-20.3-3.97-30.48C-.06,282.49-.06,191.57,.12,100.65,.22,51.93,28.65,14.17,73.43,3.29,82.43,1.1,91.95,.17,101.23,.14,193.53-.07,285.83,.01,378.13,.04c27.83,0,52.56,8.14,72.56,28.26,18.36,18.47,27.92,40.71,27.95,66.84,.05,47.33,.01,94.66,.01,141.99Zm-142.77,92.95V139.2c-18.59-2.55-181.23-1.85-191.15,.7-2.62,26.71-1.48,180.6,1.38,190.2h189.77Zm-20.93,68.53c-22.83-18.79-44.69-37.04-66.87-54.91-6.54-5.27-14.65-4.67-21.89,.86-9.31,7.1-18.36,14.56-27.5,21.88-12.37,9.91-24.72,19.84-37.72,30.28,18.03,19.86,35.63,38.61,52.42,58.06,6.15,7.12,12.75,9.39,21.84,9.65,10.27,.3,18.2-2.22,24.53-10.39,2.85-3.68,6.56-6.68,9.87-10,14.83-14.86,29.65-29.73,45.32-45.44Zm3-323.44c-2.72-3.3-4.65-5.84-6.79-8.19-15.69-17.32-31.37-34.65-47.14-51.89-9.49-10.38-30.91-10.69-41.15-.54-17.26,17.11-34.43,34.32-51.55,51.57-2.13,2.15-3.73,4.83-5.97,7.77,22.02,18.07,43.22,35.65,64.65,52.96,7.1,5.74,15.77,5.74,23.06,.24,9.32-7.04,18.31-14.51,27.43-21.82,12.32-9.88,24.63-19.79,37.46-30.1Zm85.51,234.64c22.28-21.93,43.4-42.46,64.19-63.32,6.69-6.71,6.24-21.18-.73-27.87-20.28-19.44-40.82-38.6-61.33-57.81-.51-.47-1.7-.21-3.53-.38-18.4,24.09-37.11,48.58-56.01,73.33,19.03,25.21,37.61,49.82,57.41,76.05ZM77.82,159.23c-2.56,2.08-4.42,3.36-6.01,4.92-19,18.69-38.03,37.37-56.92,56.18-10.45,10.41-10.24,20.67,.7,31.15,17.55,16.83,35.27,33.49,52.97,50.17,2.62,2.47,5.52,4.62,9.19,7.67,19.4-25.4,38.28-50.11,57.22-74.9-19.49-25.64-38.12-50.14-57.15-75.18Zm74.12,234.54c-6.71-22.5-4.76-45.76-19.37-65.16-17.59-1.95-35.57-3.94-53.92-5.97-13.1,36.47-25.69,71.54-39.09,108.83,38.06-12.77,74.2-24.89,112.37-37.7Zm194.35-252.21c18.32,2.43,36.2,4.8,53.47,7.09,11.48-24.08,36.48-96.92,36.77-107.49-35.99,12.17-71.6,24.21-108.22,36.59,4.62,22.06,4.96,43.96,17.98,63.81Zm89.23,294.33c-12.61-39.14-24.39-75.72-36.35-112.85-20.19,6.37-38.77,12.24-57.24,18.07-6.48,17.87-12.66,34.91-19.23,53.03,37.48,13.87,73.99,27.38,112.81,41.75ZM43.83,35.77c12.65,39.3,24.33,75.57,36.29,112.71,17.9-5.57,34.82-10.66,51.58-16.21,2.76-.91,6.04-3.4,7.03-5.96,6.2-15.93,11.81-32.08,17.87-48.86-37.47-13.85-73.69-27.24-112.77-41.68Zm-8.26,404.65c17.81,22.35,51.45,30.34,86.93,24.18,8.41-19.73,16.96-39.8,26.52-62.25-38.78,13.01-75.34,25.28-113.45,38.07Zm371.9-115.17c12.92,40.04,24.94,77.3,37.19,115.29,21.87-19.19,30.99-50.43,25.85-85.69-19.75-9.27-39.94-18.75-63.05-29.6ZM67.99,144.57c.89-.54,1.79-1.07,2.68-1.61-11.69-36.37-23.38-72.74-35.26-109.74C12.08,52.95,4.23,83.74,9.23,116.99c19.24,9.03,39,18.3,58.76,27.57ZM330.2,69.44c39.18-13.68,75.51-24.63,112.32-38.4-25.89-23.98-55.12-25.41-86.28-22.47-8.29,19.38-16.51,38.59-26.04,60.86ZM30.46,435.47c13.01-36.28,25.82-72.02,39.55-110.33-22.05,8.99-41.65,16.98-60.77,24.77-4.1,35.82-.44,64.97,21.22,85.56ZM448.56,37.05c-13.2,36.81-25.68,71.61-39.27,109.53,22.72-9.27,42.3-17.26,61.82-25.23,2.5-30.35,.56-58.58-22.55-84.3Zm-8.56,408.26c-38.34-14.19-74.87-27.71-114.47-42.36,12.15,23.14,22.67,43.17,32.97,62.78,29.23,2.22,56.46,1.36,81.49-20.41ZM149.11,66.94l2.54-2.24c-9.82-18.76-19.64-37.53-29.53-56.42-28.59-1.94-55.9-1.89-80.42,18.96,36.9,13.64,72.15,26.67,107.41,39.7ZM471.24,254.56c-20.8,21.34-41.11,42.16-61.96,63.56,19.83,9.26,40.41,18.87,61.96,28.93v-92.49ZM8.53,215.68c20.58-21.76,39.94-42.24,59.62-63.04-18.61-8.49-38.04-18.73-59.62-27.09v90.13Zm.31,39.51c-2.51,32.03-1.64,76.13,1.58,86.46,20.45-8.45,40.84-16.89,62.49-25.84-21.8-20.63-42.13-39.86-64.08-60.62Zm310.49,151.54c-20.23,20.59-39.1,39.8-57.74,58.77h88.43c-10.54-20.18-20.44-39.15-30.69-58.77Zm-105.35,59.19c-19.61-21.56-37.92-41.7-57.33-63.04-9.39,22.18-17.82,42.09-26.69,63.04h84.02ZM130.43,8.28c10.31,19.72,20.13,38.47,29.28,55.96,19.43-19.01,38.06-37.24,57.2-55.96h-86.47Zm340.92,120.89c-20.57,8.38-40.23,16.39-61.63,25.11,21.09,19.94,40.82,38.59,61.63,58.27v-83.38Zm-74.4,187.01c-9.09-17.02-45.61-64.26-52.42-68.78v84.99c18.01-5.57,34.7-10.73,52.42-16.21Zm-74.34-247.54c8.77-20.54,17.07-39.98,25.71-60.2h-80.47c18.74,20.61,36.23,39.83,54.76,60.2Zm-185.99,70.04c-18.18,5.59-34.85,10.71-52.87,16.25,17.85,23.49,34.62,45.57,52.87,69.6v-85.85Zm116.46,199.58c22.05,18.08,42.16,34.58,63.28,51.9,6.4-17.77,12.34-34.27,18.7-51.9h-81.98Zm-116.88-16.47v-77.05c-18.41,24.19-35.45,46.57-53.86,70.76,19.46,2.27,36.27,4.23,53.86,6.28Zm208.26-97.96c17.89-23.44,34.4-45.07,51.96-68.09-18.34-2.56-34.68-4.84-51.96-7.25v75.34Zm-124.3,116.13l-1.08-2.33c-11.71,0-23.42-.06-35.12,.02-11.47,.07-22.95,.28-35.85,.44,3.46,17.92,6.55,33.9,9.95,51.51,21.47-17.16,41.79-33.4,62.1-49.64Zm2.4-209.63c-20.94-17.18-39.58-32.47-59.53-48.84-6.1,16.73-11.74,32.19-17.81,48.84h77.33Zm38.41-.09h70.14c-3.33-16.03-6.48-31.14-10-48.08-20.73,16.57-39.51,31.59-60.14,48.08Z"/></svg>