<?xml version="1.0" encoding="UTF-8"?><svg id="a" xmlns="http://www.w3.org/2000/svg" viewBox="0 0 416.91 418.77"><defs><style>.b{fill:#1e4162;}</style></defs><path class="b" d="M208.46,418.77c-42.79-23.32-83.71-49.19-118.78-83.61-31.07-30.5-53.75-66.2-69.06-106.77-8.2-21.74-14.54-44-18.35-66.95-.8-4.8-1.51-9.61-2.26-14.41,0-9.93,0-19.85,0-29.78,.5-1.4,1.34-2.77,1.43-4.2,.93-13.69,4.54-26.72,9.19-39.54C24.62,34.94,51.05,10.75,91.83,3.08,97.21,2.07,102.58,1.03,107.95,0c7.44,0,14.89,0,22.33,0,1.71,.48,3.4,1.31,5.13,1.4,18.54,1,34.98,7.58,48.89,19.64,8.55,7.41,16.09,16,24.47,24.44,1.9-2.32,4.2-5.15,6.53-7.97,14.59-17.66,32.31-30.39,55.21-34.89C275.26,1.69,280.02,.87,284.76,0c8.07,0,16.13,0,24.2,0,6.25,1.21,12.54,2.28,18.75,3.65,29.46,6.48,52.84,21.59,68.05,48.21,8.64,15.13,14.43,31.31,17.55,48.42,1.37,7.49,2.41,15.04,3.6,22.56v20.47c-1.17,7.19-2.2,14.4-3.52,21.56-9.96,54.37-30.05,104.28-65.48,147.31-29.91,36.32-67.04,63.9-107.06,87.91-8.48,5.09-17.11,9.91-25.62,14.94-1.76,1.04-3.28,2.48-4.91,3.73h-1.86Zm124.07-254.86c-12.05-22.91-23.98-45.61-35.89-68.25-28.41-8.74-56.42-17.45-84.53-25.85-2.7-.81-6.09-.25-8.93,.52-9.24,2.49-18.4,5.31-27.56,8.12-18.59,5.7-37.15,11.47-55.66,17.2-12.1,23-24.05,45.7-35.91,68.24,11.35,30.14,22.57,59.92,33.77,89.7,1.24,3.3,3.21,5.67,6.39,7.51,9.37,5.43,18.52,11.25,27.77,16.89,18.71,11.42,37.44,22.82,55.83,34.03,1.16-.44,1.78-.58,2.3-.89,27.49-16.74,54.94-33.56,82.51-50.17,3.51-2.12,5.15-5.04,6.48-8.57,11.01-29.21,22.06-58.4,33.43-88.47Zm-124.28,249.84c20.82-25.25,40.99-49.72,61.87-75.05-21.27-7.69-41.77-15.09-61.92-22.38-20.7,7.51-40.88,14.84-61.75,22.41,20.84,25.3,40.88,49.62,61.8,75.02Zm-69.97-80.39l1.3-1.53c-7.13-22.3-14.14-44.64-21.53-66.85-.99-2.97-3.45-5.84-5.96-7.84-11.63-9.23-23.51-18.15-35.32-27.16-6.04-4.61-12.1-9.2-19.47-14.81,1.04,27.61,2.02,53.51,3.02,79.95,26.1,12.8,52.03,25.52,77.96,38.24Zm221.05-117.2c-1.68,.63-2.34,.72-2.8,1.07-17.7,13.51-35.35,27.09-53.1,40.55-3.18,2.41-4.54,5.56-5.69,9.21-6.42,20.29-13.05,40.52-19.53,60.79-.5,1.58-.4,3.35-.67,5.96,26.7-13.08,52.43-25.69,78.56-38.5,1.07-26.31,2.13-52.21,3.23-79.08ZM68.28,14.84c-3.64,29.38-7.18,57.95-10.83,87.39,20.75-3.39,40.18-6.56,60.07-9.81,8.09-16.5,16.18-33.02,24.56-50.1-24.82-9.24-48.73-18.15-73.8-27.48Zm206.14,27.51c8.61,17.49,16.73,34,24.67,50.13,20.33,3.3,39.71,6.44,60.19,9.76-4.23-29.65-6.91-58.38-11.31-87.26-24.72,9.2-48.41,18.02-73.55,27.37Zm87.09,165.43c16.85-23.78,32.97-46.54,49.44-69.78-16.55-10.46-32.4-20.48-48.96-30.95-8.75,19.47-17.16,38.22-25.49,56.76,8.4,14.78,16.44,28.91,25.01,43.97Zm-306.41,0c8.75-15.45,16.8-29.67,24.94-44.04-8.42-18.71-16.76-37.24-25.49-56.66-16.69,10.57-32.72,20.73-48.88,30.98,16.57,23.36,32.5,45.84,49.44,69.72Zm149.03,106.25c-28.15-17.17-54.61-33.31-82.65-50.42,8.03,25.01,15.43,48.09,23.07,71.88,19.8-7.13,38.87-14,59.58-21.46Zm90.86-50.35c-28.26,17.26-54.64,33.38-82.48,50.38,20.71,7.46,39.73,14.31,59.52,21.44,7.63-23.88,14.99-46.88,22.96-71.82ZM13.49,76.53c13.42,8.21,26.4,16.14,40.47,24.74,3.59-28.92,7-56.4,10.44-84.13-19.57,5.06-39.79,28.68-50.91,59.39Zm388.75,.35c-3.33-19.51-28.14-55-50.15-59.5,3.79,27.72,6.46,55.42,10.85,83.79,13.98-8.64,26.77-16.54,39.3-24.29Zm-66.94,92.01c-7.75,15.36-30.74,77.92-30.79,83.57,18-13.84,35.86-27.57,54.3-41.75-7.84-13.95-15.37-27.34-23.51-41.82ZM112.34,252.67c-9.46-28.18-19.35-55.85-30.75-84.35-8.47,15.03-16.15,28.65-23.92,42.43,18.6,14.26,36.63,28.09,54.67,41.92Zm-30.12-92.96c11.47-21.85,21.99-41.9,33.2-63.24-19.82,3.22-38.22,6.2-57.44,9.32,8.15,18.12,15.79,35.12,24.25,53.92Zm252.17-.09c8.25-18.42,15.89-35.46,24.01-53.58-19.32-3.78-37.73-6.47-57.24-9.46,11.27,21.38,21.88,41.51,33.23,63.04Zm-120.76-93.24c27.73,8.51,53.5,16.42,80.71,24.77-8.12-16.5-15.55-31.59-23.34-47.43-18.88,7.46-37.14,14.67-57.37,22.66Zm47.69-57.29c-1.76,.54-3.51,.97-5.18,1.62-16.65,6.52-28.93,18.5-40.32,31.78-5.34,6.23-6.8,12.77-4.54,21.01,19.58-7.8,38.97-15.52,58.63-23.36-2.44-9.97-4.68-19.22-7-28.45-.21-.83-.92-1.54-1.59-2.6Zm-106.11-.21c-4.26,9.93-7.58,25.22-7.05,31.9,19.01,7.54,38.09,15.1,57.38,22.75,2-8.27,.55-14.42-4.52-20.51-12.46-14.96-26.32-27.71-45.81-34.14Zm-33.05,82.31c27.54-8.47,53.06-16.33,80.63-24.81-20.13-8-38.26-15.2-57.2-22.72-7.73,15.67-15.16,30.74-23.43,47.53ZM342.27,13.22c-25.12-10.27-50.11-11.88-76.44-5.67,2.56,10.84,4.93,20.84,7.42,31.4,23.66-8.82,46.34-17.28,69.02-25.73Zm-198.98,25.74c2.54-10.79,4.91-20.81,7.46-31.63-26.7-5.59-51.99-4.67-78.56,5.06,24.23,9.06,46.98,17.56,71.1,26.57Zm252.03,180.16c9.01-24.71,15.15-49.27,17.15-76.95-16.63,23.44-32.12,45.26-48.25,68,10.81,3.11,20.73,5.97,31.1,8.95ZM5.56,144.21c.73,25.88,6.59,50.62,15.8,74.91,10.44-3.04,20.42-5.94,30.95-9.01-16.01-22.57-31.38-44.24-46.76-65.91Zm267.85,196.21c-18.39,22.33-36.27,44.05-54.15,65.76l1.43,1.57c25.37-14.67,50.4-29.87,73.58-48.7-7.11-6.35-13.54-12.1-20.86-18.63Zm-77.28,67.32c.43-.47,.86-.94,1.29-1.41-18.07-21.9-36.14-43.81-54.31-65.85-7.35,6.61-13.9,12.49-20.83,18.71,23.87,18.77,48.42,34.34,73.85,48.55Zm163.85-120.17c15.02-19.85,25.96-41.47,34.02-65.07-10.71-3.04-20.34-5.78-30.89-8.78-1.07,25.31-2.1,49.58-3.13,73.85ZM53.56,213.69c-10.76,3.05-20.67,5.87-31.13,8.84,8.34,23.39,18.87,45.04,33.97,64.84-.93-24.21-1.87-48.43-2.84-73.68ZM365.2,104.05c16.99,12.59,40.7,27.06,47.74,29.09,.05-18.05-2.69-35.44-8.66-53.18-13.34,8.22-26.05,16.06-39.08,24.09ZM3.93,134.85c16.42-10.45,31.62-20.12,47.89-30.48-13.86-8.57-26.38-16.31-39.61-24.49-5.8,17.77-8.99,35.12-8.28,54.97Zm64.38,168.25c2.39,9.37,35.98,43.74,51.74,52.95,6.36-5.63,12.89-11.42,20.03-17.75-24.61-12.07-48.07-23.57-71.77-35.2Zm228.86,53.73c19.7-16.11,37.17-33.11,51.24-53.77-23.65,11.6-47.3,23.2-71.81,35.22,7.25,6.53,13.63,12.28,20.57,18.54Z"/></svg>