<?xml version="1.0" encoding="UTF-8"?><svg id="a" xmlns="http://www.w3.org/2000/svg" viewBox="0 0 400.45 464"><defs><style>.b{fill:#1e4162;}</style></defs><path class="b" d="M24.47,464c-.66-.31-1.29-.71-1.97-.91C8.44,458.98,.04,447.99,.03,433.32c-.05-38.95-.02-77.89-.02-116.84,0-72.91,0-145.82,0-218.73,0-21.1,12.02-33.15,33.07-33.15,44.68,0,89.36-.03,134.05,.06,2.88,0,4.52-.73,6.06-3.37C198.55,17.73,248.2-6.36,296.18,1.46c52.1,8.49,91.24,45.69,101.84,96.8,13.97,67.37-33.82,134.93-101.82,143.94-22.58,2.99-38.8,1.12-63.25-7.44-4.43,8.73-12.62,8.99-21.22,8.96-40.61-.13-81.21-.05-121.82-.07-9.77,0-15.94-4.48-17.8-12.75-2.01-8.92,4.53-17.97,13.66-18.81,1.8-.17,3.62-.13,5.43-.13,33.06,0,66.12,0,99.18,0,1.65,0,3.3,0,5.92,0-1.3-1.5-2.04-2.48-2.9-3.33-10.51-10.39-19.08-22.18-25.1-35.7-1.27-2.86-2.96-3.51-5.86-3.49-24.3,.11-48.61,.08-72.91,.05-8.28-.01-14.08-3.59-16.65-10.09-4.12-10.39,3.19-21.45,14.63-21.56,21.43-.21,42.87-.08,64.31-.09,1.78,0,3.56,0,4.91,0,.55-13.88,1.09-27.34,1.64-41.1H32.01V431.93h242.52c0-1.6,0-3.34,0-5.08,0-34.42-.03-68.83,.02-103.25,.02-12.04,10.11-19.82,20.87-16.28,6.79,2.24,10.8,8.08,10.81,16.06,.03,30.19,.01,60.38,.01,90.57,0,6.49,.04,12.98-.01,19.47-.11,14.72-8.43,25.64-22.52,29.68-.69,.2-1.33,.59-1.99,.9H24.47Zm254.01-252.13c49.4,.14,90.03-40.25,90.18-89.63,.15-49.52-40.02-90.08-89.44-90.31-49.77-.23-90.47,39.98-90.68,89.57-.21,49.56,40.28,90.24,89.94,90.37Z"/><path class="b" d="M152.72,390.85c-21.59,0-43.17,.1-64.76-.04-11.79-.08-19.28-10.98-15.11-21.56,2.57-6.52,8.34-10.08,16.64-10.09,23.09-.03,46.19-.01,69.28-.01,19.62,0,39.25-.1,58.87,.04,12.01,.09,19.7,10.37,16.02,21.06-2.27,6.6-7.99,10.56-15.74,10.58-21.74,.06-43.47,.02-65.21,.02Z"/><path class="b" d="M152.89,316.74c-21.28,0-42.56,.04-63.85-.02-8.6-.03-14.48-4.15-16.6-11.29-2.76-9.32,3.21-18.72,12.84-20.09,1.93-.27,3.91-.28,5.87-.28,41.36-.01,82.71-.01,124.07,0,12.1,0,19.45,6.09,19.35,16-.09,9.75-7.33,15.69-19.2,15.69-20.83,.01-41.66,0-62.49,0Z"/><path class="b" d="M306.39,271.72c-.19,2.39-.08,4.85-.61,7.16-1.69,7.32-8.44,12.33-15.92,12.09-7.42-.24-13.88-5.64-14.98-13.19-.57-3.97-.59-8.16,0-12.12,1.24-8.28,8.7-13.87,16.77-13.14,8.32,.75,14.29,7.13,14.56,15.58,.04,1.2,0,2.41,0,3.61h.17Z"/><path class="b" d="M262.74,88.99c0-10.41-.04-20.82,.01-31.24,.05-10.12,6.62-17.14,15.91-17.12,9.32,.02,15.75,6.98,15.77,17.19,.04,16.9,.07,33.8-.05,50.7-.02,2.6,.75,4.01,3.16,5.15,7.21,3.42,14.32,7.07,21.41,10.74,8.95,4.63,11.97,13.52,7.61,22.06-4.16,8.15-13.04,10.64-22.07,6.13-10.24-5.12-20.37-10.47-30.71-15.38-7.73-3.66-11.29-9.39-11.1-17.92,.22-10.11,.05-20.22,.05-30.33Z"/></svg>