<?xml version="1.0" encoding="UTF-8"?><svg id="a" xmlns="http://www.w3.org/2000/svg" viewBox="0 0 492 415.22"><defs><style>.b{fill:#1e4162;}</style></defs><path class="b" d="M492,147.3c-2.06,10.29-3.45,20.77-6.31,30.83-8.48,29.83-24.34,55.83-43.3,80.04-32.63,41.67-72.03,76.22-114.81,106.91-22.71,16.29-46.63,30.87-69.91,46.37-7.69,5.12-14.74,4.9-22.72,.1-56.84-34.17-110.22-72.8-156.41-120.69-27.25-28.25-51.18-58.96-65.95-95.81C-5.03,151.08-5.05,107.21,18.25,65.51,43.53,20.25,84.04-.69,135.43,.17c41.33,.69,76.2,18.25,107.26,44.38,1.09,.92,2.18,1.83,2.9,2.43,10.91-7.68,21.22-15.79,32.34-22.6C305.85,7.29,336.12-1.52,369.17,.22c56.99,3,104.23,41.78,117.95,97.3,2.17,8.78,3.28,17.82,4.89,26.74v23.04ZM123.14,30.46c-32.85-.8-70.08,24.31-84.49,63.43-12.17,33.03-9.06,65.28,5.6,96.81,14.84,31.91,36.61,58.8,61.12,83.6,41.16,41.65,88.04,75.95,137.88,106.41,2.23,1.36,3.79,1.36,6,.01,41.88-25.52,81.6-53.98,117.84-87.11,27.49-25.14,52.66-52.3,71.59-84.67,15.81-27.05,25.85-55.63,21.7-87.66-4.81-37.16-22.25-65.68-57.09-81.68-25.47-11.69-51.77-11.45-78.15-3.19-25.25,7.91-46.56,22.28-65.34,40.65-9.94,9.72-16.98,9.71-27.17,.03-4.52-4.29-9.1-8.55-13.96-12.44-25.36-20.3-53.62-33.33-95.53-34.2Z"/></svg>