<?xml version="1.0" encoding="UTF-8"?><svg id="a" xmlns="http://www.w3.org/2000/svg" viewBox="0 0 242 448.67"><defs><style>.b{fill:#1e4162;}</style></defs><path class="b" d="M0,223.6c.53-29.58,6.48-54.68,16.42-78.9C34.65,100.23,61.74,61.56,94.26,26.5c7.27-7.84,14.68-15.57,22.33-23.04,4.7-4.59,5.34-4.69,9.86,.16,13.79,14.83,27.83,29.49,40.72,45.08,20.03,24.24,37.4,50.36,51.12,78.76,9.67,20.02,16.95,40.93,21.02,62.75,5.28,28.28,2.35,56.2-5.22,83.82-9.3,33.9-25.02,64.8-43.73,94.26-16.67,26.23-35.75,50.63-58.23,72.24-1.38,1.33-2.7,2.72-4.14,3.99-6.09,5.36-7.27,5.7-13.42,.07-7.62-6.98-15-14.3-21.89-22-24.89-27.79-45.42-58.63-62.55-91.72-12.87-24.87-21.96-51.17-27.24-78.64-2.01-10.44-2.2-21.23-2.91-28.63ZM143.04,105.72c.11,.35,.17,.74,.36,1.03,.11,.17,.46,.18,.71,.26l-1.29-1.07c-1.99-9.23-3.84-18.48-6.05-27.65-.6-2.47-2.46-2.36-4.09-.41-1.47,1.76-3.5,3.22-4.43,5.21-.82,1.76-1.42,4.86-.47,6.01,4.79,5.79,10.12,11.13,15.26,16.62Zm-22.27,252.12c9.5-11.4,18.32-21.89,26.98-32.5,1.12-1.38,1.59-3.4,2.06-5.2,7.46-28.73,14.81-57.49,22.34-86.2,1.57-6.01,1.78-11.91,.27-17.87-6.83-26.93-13.68-53.86-20.63-80.76-1.04-4.02-1.74-8.6-4.15-11.71-8.37-10.76-17.43-20.99-26.57-31.83-7.45,8.58-14.16,16.41-20.98,24.13-4.9,5.54-7.81,11.9-9.57,19.1-6.87,28.11-13.99,56.15-21.18,84.18-1.18,4.6-.81,9.02,.31,13.39,7.47,29.13,15.04,58.24,22.68,87.32,.66,2.5,1.62,5.16,3.2,7.14,8.07,10.12,16.39,20.04,25.25,30.8Zm72.4-181.42c-3.39,13.72-6.38,25.09-8.94,36.55-1.15,5.14-2.8,10.73-1.88,15.68,2.44,13.07,6.12,25.92,9.51,38.8,.17,.66,2.32,1.25,3.42,1.07,.92-.15,1.72-1.41,2.45-2.28,11.03-13.2,21.94-26.48,33.1-39.57,2.99-3.51,.7-5.41-1.3-7.74-11.63-13.58-23.24-27.17-36.36-42.52ZM49.38,272c3.97-15.44,7.59-28.2,10.4-41.14,.93-4.3,.43-9.2-.54-13.57-2.54-11.49-5.66-22.85-8.61-34.25-1.04-4.02-2.67-4.69-5.18-1.8-11.27,12.95-22.33,26.07-33.51,39.09-2.47,2.88-1.9,5.07,.54,7.86,7.79,8.88,15.27,18.02,22.87,27.07,4.11,4.89,8.21,9.79,14.04,16.73Zm140.26,13.83c-12.46,15.01-23.47,28.12-34.23,41.43-1.59,1.97-2.29,4.82-2.93,7.38-2.68,10.68-5.21,21.4-7.73,32.12-.41,1.72-.51,3.51-.76,5.27,1.9-.78,4-1.26,5.68-2.37,15.22-10.17,30.17-20.74,45.62-30.53,5.25-3.32,6.4-7.01,5.03-12.33-3.32-12.85-6.69-25.69-10.68-40.96ZM51.74,162.78c10.18-11.65,19.93-22.39,29.14-33.57,3.56-4.33,6.95-9.36,8.55-14.63,3.7-12.24,6.26-24.82,9.26-37.2-.69-.29-1.1-.59-1.24-.5-18.43,12.27-36.83,24.58-55.26,36.84-2.51,1.67-1.75,3.44-1.12,5.86,3.63,13.98,6.97,28.03,10.68,43.2Zm138.7-1.2c3.56-13.95,6.43-26.97,10.34-39.66,1.74-5.63-.04-8.31-4.3-11.13-15.97-10.56-31.81-21.31-47.73-31.93-1.41-.94-3.06-1.55-5.62-2.82,3.27,13.05,6.22,24.78,9.15,36.52,1.5,6.03,4.33,11.37,8.37,16.06,7.01,8.12,14.02,16.25,21.13,24.27,2.49,2.81,5.3,5.35,8.66,8.7ZM52.58,286.26c-3.92,15.17-7.26,28.33-10.76,41.45-1.29,4.82,.45,7.6,4.55,10.3,15.29,10.09,30.31,20.59,45.46,30.89,1.98,1.35,4.12,2.47,7.22,4.31-3.38-13.86-6.2-26.01-9.38-38.07-.85-3.24-2.27-6.62-4.35-9.2-10.26-12.78-20.83-25.32-32.73-39.69ZM6.83,212.76l2.32,1.03c11.55-13.66,23.1-27.32,34.65-40.97,2.77-3.27,2.7-6.8,1.54-10.75-1.6-5.47-2.6-11.1-4.14-16.59-2.13-7.59-4.52-15.11-7.11-23.7-14.97,29.64-25.47,59.06-27.26,90.98Zm228.41,3.01c-1.37-34.92-12.22-64.23-26.97-93.49-1.19,2.58-2.25,4.21-2.72,6-2.88,11.02-5.21,22.19-8.58,33.05-1.74,5.59-.39,9.63,3.05,13.57,6.77,7.76,13.65,15.42,20.39,23.2,4.45,5.14,8.74,10.41,14.82,17.67ZM35.81,325.65c3.63-13.72,6.87-25.4,9.76-37.17,1.17-4.78,1.72-9.39-2.27-13.9-10.87-12.26-21.23-24.99-31.83-37.49-.68-.8-1.77-1.26-2.66-1.87-.46,1.26-1.53,2.64-1.3,3.76,2.91,14.11,5.23,28.42,9.28,42.21,4.35,14.84,9.76,29.47,19.03,44.46Zm199.43-94.03c-13.16,15.65-24.35,29.21-35.88,42.47-3.11,3.58-4.24,7.15-3.11,11.52,3.28,12.7,6.65,25.38,10.54,40.14,15.78-29.93,24.52-59.85,28.45-94.13ZM47.25,102.56c13.71-9.34,27.43-18.66,41.12-28.02,3.45-2.36,6.81-4.85,10.21-7.29-2.38-3.3-4.7-6.63-7.15-9.88-2.23-2.96-4.59-5.81-7.43-9.39-14.4,17.39-27.35,34.54-36.75,54.58Zm146.76-1.13l1.95-1.93c-8.79-12.47-17.4-25.07-26.45-37.35-3.51-4.76-8.01-8.79-12.06-13.15-4.25,4.89-8.48,9.8-12.77,14.66-2.01,2.28-1.53,3.78,.95,5.42,16.17,10.72,32.27,21.55,48.39,32.34ZM84.24,401.4c4.68-5.7,8.68-10.79,12.93-15.65,2.44-2.79,1.86-4.23-1.11-6.19-14.65-9.68-29.13-19.61-43.71-29.4-1.39-.93-2.96-1.59-6.7-3.57,12.97,20.04,23.66,38.37,38.58,54.82Zm109.18-53.3c-11.08,7.45-21.39,14.34-31.66,21.28-5.39,3.64-10.73,7.38-16.1,11.05-2.32,1.58-2.84,3.34-.89,5.64,4.19,4.94,8.31,9.94,12.46,14.92,10.09-9.09,31.87-40.79,36.18-52.89ZM121.35,80.82c3.57-4.4,7.05-8.43,10.19-12.71,1-1.37,1.88-3.58,1.51-5.08-3.63-14.67-7.53-29.28-11.97-46.23-3.58,13.76-6.51,25.18-9.54,36.56-3.65,13.7-3.69,13.7,5.96,23.91,1.03,1.09,2.21,2.05,3.86,3.55Zm-38.36,58.92l-1.6-1.36c-8.62,10.2-17.32,20.35-25.77,30.69-.93,1.14-.94,3.53-.56,5.16,2.42,10.39,5.05,20.73,7.69,31.06,.15,.6,1.22,1.56,1.44,1.45,.89-.42,2.13-1.06,2.33-1.85,5.56-21.7,11.01-43.43,16.47-65.15Zm37.71,290.23c1.73-4.72,2.95-7.42,3.71-10.24,2.35-8.77,4.04-17.74,6.92-26.32,2.46-7.34,1.03-13.07-4.2-18.31-2.06-2.06-4.03-4.2-6.5-6.78-3.68,4.34-7,7.98-9.98,11.89-1.06,1.39-2.13,3.64-1.75,5.14,3.58,14.27,7.48,28.46,11.8,44.62Zm40.04-291.61l-1.37,.76c.68,2.83,1.33,5.66,2.03,8.47,4.66,18.75,9.29,37.5,14.07,56.22,.28,1.11,1.76,1.93,2.67,2.88,.51-.95,1.24-1.85,1.5-2.86,2.31-8.78,4.82-17.53,6.65-26.42,.63-3.08,.69-7.44-1.01-9.65-7.79-10.1-16.3-19.65-24.55-29.4Zm-79.58,172.09c.52-.35,1.04-.71,1.57-1.06-5.61-22.22-11.22-44.44-17.47-69.23-4.75,13.37-7.85,24.53-9.78,36-.27,1.62,.59,3.85,1.67,5.2,7.9,9.78,15.99,19.41,24.02,29.09Zm78.26-1.1c.44,.26,.88,.53,1.32,.79,7.87-9.34,15.62-18.8,23.68-27.98,2.99-3.4,2.84-6.94,1.92-10.71-2.16-8.86-4.44-17.7-6.77-26.52-.25-.97-1.12-1.77-1.7-2.65-.85,1.03-2.17,1.93-2.47,3.09-5.4,21.31-10.68,42.65-15.99,63.98Zm-46.38,125.61c.61-.46,1.22-.92,1.83-1.38-3.86-14.46-7.72-28.91-11.76-44.04-4.65,5.24-8.55,9.86-12.71,14.23-2.04,2.14-1.83,3.77-.02,5.79,7.58,8.44,15.12,16.93,22.67,25.4Zm25.51-44.8c-4.12,15.94-7.71,29.85-11.67,45.21,7.99-7.74,14.86-13.86,21.07-20.57,5.8-6.27,5.56-7.56-.1-14.53-2.39-2.95-5.13-5.61-9.3-10.11ZM102.2,62.41c4.8-17.23,8.65-30.91,10.27-45.34-5.6,4.85-10.24,10.19-15,15.43-9.98,10.99-9.96,10.92,.21,22.11,1.5,1.65,2.31,3.92,4.51,7.8Zm28.46-45.25c1.15,14.03,3.63,27.5,8.86,41.57,4.17-4.74,7.26-8.48,10.61-11.98,3-3.14,2.67-5.8-.21-8.82-6.51-6.84-12.85-13.84-19.26-20.77Zm12.84,327.6l-2.16-1.28c-5.32,6.31-10.65,12.62-16.26,19.28,3.3,3.86,6.56,7.66,10.39,12.13,2.87-10.74,5.45-20.44,8.04-30.14Zm-36.47,28.2q10.11-9.67,1.29-19.68c-2.73-3.1-5.3-6.34-7.95-9.52,.59,10.18,1.83,20.02,6.66,29.2Zm-7.67-266.14c4.52-5.37,7.65-9.61,11.31-13.32,7.71-7.81,4.96-8.58,.17-13.81-1.11-1.21-2.41-2.24-5.05-4.67-1.46,11.26-6.25,19.99-6.42,31.8Z"/><path class="b" d="M142.82,105.94l1.29,1.07c-.24-.08-.6-.09-.71-.26-.2-.29-.25-.68-.36-1.03l-.22,.22Z"/></svg>