<svg width="470" height="468" viewBox="0 0 470 468" fill="none" xmlns="http://www.w3.org/2000/svg">
<path d="M233.561 0.291016C298.594 0.291016 357.776 26.9084 399.068 68.2492C443.479 109.638 470 168.724 470 233.804C470 298.837 443.479 357.923 402.042 399.359C360.653 440.796 301.567 467.318 236.487 467.318C171.406 467.318 112.32 440.796 70.9316 399.359C26.6173 357.923 0 298.837 0 233.804C0 168.724 26.6173 109.638 68.0061 68.2492C112.368 26.8604 168.529 0.291016 233.561 0.291016ZM215.864 74.1482C215.864 62.3022 224.737 56.4033 233.609 56.4033C242.482 56.4033 251.354 65.2757 251.354 74.1482V216.011H369.573C378.446 216.011 387.318 224.884 387.318 233.756C387.318 242.629 378.446 251.501 369.573 251.501H233.561C224.689 251.501 215.816 242.629 215.816 233.804L215.864 74.1482ZM375.472 94.8665C340.031 59.3767 289.721 35.7329 236.535 35.7329C180.375 35.7329 133.087 59.3767 97.5969 94.8665C62.1071 130.308 38.4633 180.618 38.4633 233.804C38.4633 286.991 62.1071 337.252 97.5969 372.742C133.087 408.232 183.348 431.924 236.535 431.924C289.721 431.924 339.983 408.28 375.472 372.742C410.962 337.3 434.606 287.039 434.606 233.804C431.633 180.618 410.962 130.308 375.472 94.8665Z" fill="#1E4162"/>
</svg>
