<?xml version="1.0" encoding="UTF-8"?><svg id="a" xmlns="http://www.w3.org/2000/svg" viewBox="0 0 352.85 484.64"><defs><style>.b{fill:#1e4162;}</style></defs><path class="b" d="M352.74,240.96c0,3.73-.05,5.55,0,7.38,.79,25.18-2.99,49.85-9.23,74.08-8.01,31.09-20.38,60.38-38.79,86.88-19.17,27.6-42.78,50.15-73.98,63.78-33.85,14.78-67.9,15.28-102.54,2.17-26.67-10.1-47.81-27.63-65.96-48.65-10.09-11.69-18.37-25.23-25.84-38.83-7.66-13.96-14.4-28.64-19.57-43.68-5.85-17.01-10.29-34.55-12.59-52.59C1.86,272.78-.72,254.1,.19,235.23c1.33-27.46,4.82-54.57,12.48-81.17,6.18-21.45,14.54-41.9,25.58-61.1,17.22-29.93,39.15-55.39,69.53-73.41C134.19,3.89,162.35-2.1,192.25,.64c20.8,1.91,40.18,9.95,57.74,21.18,10.93,6.99,21.53,15,30.68,24.14,12.54,12.53,23.75,26.53,32.46,42.07,9.74,17.38,18.58,35.26,24.47,54.44,6.17,20.07,10.82,40.32,13.4,61.27,1.61,13.12,.93,26.1,1.75,37.21ZM177.23,123.22c-2.1,1.03-4.42,2.03-6.61,3.27-15.78,8.96-31.31,18.38-47.4,26.73-5.25,2.72-7.44,6.4-8.91,11.3-6.46,21.47-12.53,43.06-19.46,64.38-2.95,9.09-3.06,17.43-.15,26.51,6.19,19.27,11.64,38.78,17.4,58.19,2.59,8.73,5.16,17.45,15.72,19.95,.98,.23,1.73,1.32,2.67,1.86,13.24,7.54,26.65,14.8,39.67,22.7,5.46,3.31,9.84,2.71,14.96-.29,11.58-6.79,23.14-13.67,35.12-19.7,11.94-6.01,21.06-13.66,22.32-27.94,.09-1.07,.45-2.13,.77-3.18,6.12-20.44,12.31-40.85,18.27-61.34,.64-2.21,.44-4.96-.22-7.22-7.37-25.34-14.96-50.62-22.34-75.96-.86-2.96-1.95-5.13-4.8-6.76-17.95-10.24-35.79-20.69-53.68-31.05-.92-.53-1.96-.86-3.34-1.46Zm118.38-1.74h.08c0-12.73,.1-25.45-.04-38.18-.07-5.95-.28-5.98-6.26-6.25-2.18-.1-4.37-.1-6.54,0-13.71,.7-27.41,1.64-41.12,2.1-10.75,.36-10.76,.1-9.39,10.97,.14,1.07,.35,2.14,.52,3.21,2.74,17.02,5.63,34.02,8.13,51.08,.75,5.16,2.6,9.04,7.65,10.75,13,4.4,26.08,8.61,39.06,13.07,3.66,1.26,5.71-.17,6.63-3.36,.78-2.73,1.2-5.65,1.24-8.49,.13-11.63,.06-23.27,.06-34.9ZM83.91,242.23c-1.11-2.86-2.08-5.95-3.48-8.82-4.78-9.79-9.81-19.45-14.56-29.26-2.99-6.18-5.69-12.51-8.43-18.81-1.01-2.31-2.19-2.62-3.74-.63-14.83,19.09-29.58,38.26-44.54,57.25-2.28,2.9-2.18,4.67,.13,7.42,15.11,17.98,30.07,36.07,44.99,54.21,1.44,1.76,1.57,2.75,2.88-.25,7.83-17.91,15.97-35.68,23.96-53.52,1.02-2.28,1.73-4.69,2.79-7.6Zm-24.61-118.14c0,12.01,0,24.03,0,36.04,0,2.55-.03,5.1,.16,7.64,.22,2.9,2.31,3.77,4.62,2.93,14.61-5.33,29.16-10.81,43.72-16.27,2.63-.99,3.55-2.9,4.03-5.77,1.78-10.63,4.21-21.16,6.05-31.79,1.84-10.64,3.02-21.41,5.03-32.02,.78-4.12,.68-5.7-4.14-5.63-17.47,.22-34.95-.02-52.42,.08-6.83,.04-6.95,.22-7.02,7.67-.11,12.38-.03,24.76-.02,37.13Zm234.21,235.42h-.04c0-13.83,.02-27.66-.01-41.5,0-3.22-1.05-4.61-4.71-3.22-12.84,4.89-25.74,9.63-38.7,14.17-4.9,1.72-8.03,4.52-8.99,9.76-1.04,5.66-2.37,11.27-3.58,16.89-3.27,15.14-6.39,30.31-9.93,45.38-.81,3.47-.33,4.47,3.18,4.46,18.56-.08,37.13,.04,55.69-.07,6.86-.04,6.99-.23,7.05-7.66,.11-12.74,.03-25.48,.03-38.22Zm-216.43,48.1v.18c13.39-.79,26.77-1.56,40.15-2.4,5.08-.32,5.98-1.79,5.06-7.09-3.56-20.59-7.17-41.17-10.44-61.8-.54-3.41-1.57-4.89-4.94-5.89-13.17-3.94-26.22-8.29-39.33-12.46-.68-.22-1.45-.12-2.17-.25q-5.94-1.11-6.12,4.44c-.8,22.86,.37,45.7-1.71,68.64-1.8,19.77-3.22,16.27,16.22,16.64,1.09,.02,2.19,0,3.28,0ZM178.34,11.57c-1.92,2.29-3.68,4.1-5.1,6.14-12.42,17.83-24.73,35.74-37.17,53.55-3.98,5.7-4.09,5.78,.91,10.04,9.93,8.46,19.81,16.98,29.78,25.38,2.49,2.09,5.34,3.74,7.87,5.79,2.09,1.69,3.82,1.53,5.76-.17,5.45-4.78,10.98-9.47,16.46-14.22,7.13-6.17,14.15-12.47,21.41-18.49,4.83-4.01,5.14-3.99,1.58-9.22-8.37-12.27-16.96-24.39-25.35-36.64-4.1-5.98-7.89-12.17-11.97-18.16-.96-1.42-2.52-2.44-4.18-4Zm120.03,290.66c1.11-1.53,1.71-2.36,2.32-3.19,4.77-6.38,9.54-12.75,14.32-19.12,8.68-11.57,17.22-23.26,26.15-34.65,3.08-3.93,2.91-6.6-.23-10.42-7.11-8.66-13.63-17.8-20.48-26.67-5.53-7.16-11.07-14.32-16.83-21.29-4.29-5.18-5.44-5.11-8.19,.52-7.8,16-15.51,32.06-22.97,48.22-1.43,3.09-2.63,6.41-.78,10.32,8.41,17.7,16.47,35.57,24.69,53.36,.44,.96,1.2,1.78,2,2.93Zm-81.34,108.73c-.75-1.37-1.29-3.19-2.46-4.38-11.28-11.4-22.67-22.68-34-34.02-2.32-2.33-4.23-1.76-6.59,.16-5.87,4.81-12.09,9.2-17.88,14.08-7.48,6.31-14.71,12.92-22.02,19.43-2.17,1.93-2.67,3.78-.75,6.55,13.21,19.04,26.29,38.17,39.27,57.37,2.04,3.02,3.08,3.42,5.27,.12,12.42-18.71,25.03-37.31,37.54-55.96,.59-.88,.94-1.92,1.62-3.36Zm77.83,2.05c-1.34-.35-2.42-.88-3.5-.88-17.07-.06-34.14-.09-51.2-.01-4.3,.02-8.6,.46-12.89,.71,.93,4.11,1.77,8.25,2.81,12.34,2.75,10.8,5.89,21.51,8.25,32.39,1.06,4.89,3.27,3.96,5.79,2.07,7.79-5.83,15-12.56,23.22-17.69,11.14-6.95,17.3-18.36,26.39-27.07,.25-.24,.38-.6,1.13-1.85Zm5.32-54.26c0,13.45-.02,26.89,.04,40.34,0,.98,.58,1.96,.89,2.95,.85-.59,2.07-.98,2.51-1.79,6.53-12.11,13.47-24.04,19.24-36.51,4.22-9.13,6.89-18.98,10.22-28.51,.56-1.59,1.75-3.12-.79-4.45-9.62-5.03-19.13-10.27-28.72-15.36-3.53-1.87-3.37,.88-3.38,3-.04,13.45-.02,26.89-.02,40.34ZM122.73,72.05c-.17-1.87-.09-3-.39-4.02-3.61-12.44-7.21-24.88-10.95-37.28-1.13-3.74-3.46-4.17-7.44-1.72-14.99,9.21-26.66,22.15-38.73,34.62-1.73,1.78-2.96,4.11-4.1,6.35-.23,.46,.96,1.7,1.59,2.5,.15,.19,.69,.06,1.06,.08,18.77,.92,37.63-1.75,56.36,1.46,.82,.14,1.93-1.46,2.6-1.99ZM52.65,127.58h-.06c0-13.47,.02-26.95-.06-40.42,0-.75-.94-1.48-1.45-2.23-.58,.4-1.41,.66-1.7,1.21-5.7,10.52-11.91,20.82-16.84,31.71-4.6,10.16-7.65,21.01-11.71,31.43-1.58,4.07-.21,5.97,3.33,7.66,7.87,3.77,15.59,7.86,23.43,11.68,4.54,2.21,4.99,1.98,5.03-2.79,.1-12.75,.03-25.49,.03-38.24ZM172.17,8.08c-1.16-.4-2.2-1.07-3.22-1.05-17.7,.25-34.09,5.37-49.56,13.7-3,1.62-3.45,4.18-2.46,7.44,3.56,11.71,6.84,23.51,10.43,35.21,.45,1.47,2.08,2.58,3.16,3.86,.99-1,2.13-1.9,2.93-3.03,10.19-14.44,20.37-28.9,30.48-43.41,2.68-3.85,5.11-7.87,8.24-12.73Zm-52.92,328.25c-.25,1.71-.87,3.3-.65,4.77,1.31,8.55,2.86,17.05,4.23,25.59,1.54,9.61,2.97,19.23,4.44,28.85,.71,4.63,2.51,5.4,6.22,2.38,11.79-9.6,23.53-19.26,35.23-28.97,1.97-1.63,2.47-3.51-.33-5.1-15.45-8.79-30.87-17.62-46.32-26.42-.62-.35-1.35-.53-2.83-1.1Zm115.04-194.98c0-1.09,.14-2.21-.02-3.28-2.25-14.6-4.48-29.21-6.85-43.8-.63-3.88-1.73-7.69-2.62-11.53-3.25,2.73-6.49,5.47-9.77,8.17-2.5,2.07-5.09,4.04-7.57,6.14-6.64,5.62-13.35,11.16-19.8,16.99-4.4,3.97-4.46,4.73,.69,7.81,13.69,8.19,27.56,16.06,41.46,23.88,3.32,1.87,4.48,.6,4.48-4.38Zm-125.51,182.25c-.58-1.6-.86-2.27-1.07-2.97-5.92-20.06-11.81-40.13-17.79-60.17-.71-2.38-2-4.58-3.02-6.86-1.24,2.38-2.54,4.74-3.72,7.15-1.44,2.93-2.84,5.88-4.16,8.86-5.41,12.25-10.74,24.53-16.2,36.75-1.08,2.42-1.21,3.9,1.83,4.79,13.5,3.96,26.95,8.07,40.44,12.07,1.04,.31,2.19,.23,3.71,.37Zm62.05-205.15c-1.05-1.24-1.83-2.42-2.86-3.31-3.55-3.09-7.18-6.09-10.81-9.09-7.82-6.46-15.68-12.87-23.48-19.35-2.35-1.96-3.69-3.3-4.5,1.42-3.31,19.18-7.06,38.28-10.61,57.42-.12,.63,.09,1.51,.49,1.99,.26,.31,1.28,.35,1.73,.1,15.83-8.89,31.64-17.82,47.43-26.79,.86-.49,1.51-1.36,2.61-2.39Zm75.49,42.78c0,1.85-.4,3.65,.06,5.2,6.18,20.73,12.47,41.43,18.75,62.13,.28,.93,.79,1.79,1.2,2.69,.81-.65,2-1.13,2.39-1.97,7.72-16.77,15.31-33.59,23.05-50.35,1.21-2.62-.18-2.87-2.11-3.5-13.04-4.28-26.05-8.67-39.07-13.01-1.03-.34-2.09-.58-4.26-1.17Zm-140.91,1.11c-1.96,.46-3.04,.6-4.04,.96-10.88,3.97-21.85,7.75-32.59,12.06-7.88,3.16-7.78,3.49-4.25,10.74,2.71,5.56,5.58,11.05,8.23,16.64,4.03,8.53,7.92,17.13,11.9,25.68,.45,.97,1.16,1.81,1.74,2.71,.81-1.06,1.98-2,2.36-3.2,4.8-15.17,9.5-30.38,14.18-45.59,1.49-4.84,3.13-9.65,4.16-14.59,.33-1.6-1.07-3.57-1.69-5.41Zm187.15,143.28c-.64-1.51-1.17-2.87-1.78-4.18-4.24-9.2-8.43-18.42-12.78-27.57-2.96-6.22-6.1-12.36-9.28-18.47-.44-.84-1.57-1.33-2.39-1.97-.41,.89-.94,1.74-1.21,2.67-2.78,9.31-5.45,18.66-8.29,27.95-3.58,11.72-7.33,23.39-10.93,35.11-1.08,3.51-.11,4.55,3.52,3.25,13.58-4.87,27.09-9.93,40.61-14.97,.92-.35,1.67-1.17,2.53-1.8Zm-170.86,107.59c-1.31-.35-2.77-1.12-4.21-1.07-17.34,.65-34.68,1.42-52.02,2.16-.36,.02-.97-.06-1.05,.11-.48,.99-1.32,2.14-1.13,3.04,.28,1.34,1.09,2.76,2.07,3.75,11.94,12.13,23.24,24.96,37.99,33.96,4.79,2.92,6.01,2.9,7.55-2.33,3.54-12.09,6.58-24.33,9.82-36.51,.19-.7,.43-1.38,.98-3.12ZM242.07,72.57c13.28-.79,24.83-1.46,36.38-2.17,4.61-.29,9.21-.69,13.81-1.03-2.8-3.28-6.05-6.27-8.33-9.88-8.41-13.32-22.11-20.66-33.78-30.27-3.61-2.98-5.38-2.1-6.86,2.73-2.97,9.66-5.56,19.43-8.49,29.1-3.51,11.57-3.59,11.55,7.28,11.53Zm58.14,88.71c0,.73-.03,1.46,0,2.18,.26,5.28,1,5.9,5.66,3.52,7.41-3.78,14.67-7.86,21.96-11.86,5.76-3.17,5.99-3.64,3.9-10.35-6.38-20.5-15.57-39.71-26.88-57.92-.37-.59-.85-1.11-1.27-1.66-.4,.76-1.12,1.51-1.16,2.28-1,24.6,1.91,49.31-2.22,73.81Zm45.85,103.25c0-2.91,.06-5.82-.03-8.73-.05-1.42-.38-2.83-.59-4.24-.91,.91-1.92,1.74-2.71,2.75-12.83,16.54-25.59,33.14-38.48,49.64-2.28,2.92-1.31,4.26,1.52,5.74,8.66,4.55,17.19,9.33,25.85,13.89,2.72,1.43,4.73,.82,5.6-2.61,4.73-18.54,7.89-37.31,8.83-56.44Zm-114.16,73.46c-.92,.51-1.56,.85-2.19,1.2-13.8,7.9-27.6,15.8-41.41,23.69-4.76,2.72-5.03,3.33-1.4,7.03,9.93,10.11,20.02,20.06,30.06,30.06,2.12,2.11,3.39,3.64,4.42-1.19,3.93-18.27,8.42-36.41,12.63-54.62,.32-1.37,.3-2.95-.05-4.29-.21-.79-1.4-1.31-2.07-1.88ZM190.19,6.71l-4.92,1.36c.73,1.22,1.41,2.48,2.21,3.66,11.5,17.09,22.99,34.18,34.57,51.21,.74,1.09,2.13,2.27,3.3,2.36,.75,.06,2.07-1.67,2.42-2.82,3.61-11.71,7.11-23.46,10.55-35.22,.98-3.36-.69-5.55-3.64-7.01-14.04-6.96-28.95-11-44.49-13.54Zm-27.93,471.32c1.76-.57,3.72-1.2,5.69-1.84-.71-1.57-1.21-3.27-2.15-4.68-11.68-17.42-23.41-34.81-35.18-52.16-.54-.79-1.66-1.19-2.51-1.77-.31,.64-.72,1.24-.92,1.91-3.58,12.11-7.21,24.2-10.65,36.35-.97,3.41-.15,6.42,3.26,8.41,13.05,7.59,27.58,10.51,42.47,13.77Zm-109.71-123.01h.07c0-10.93-.02-21.86,.01-32.79,0-3.2-1.3-3.74-3.96-2.28-6.99,3.85-14.07,7.53-20.98,11.49-6.55,3.75-6.45,3.86-4.32,11.08,4.66,15.73,11.61,30.5,19.31,44.91,1.88,3.52,4.8,6.5,7.24,9.72,.88-4.21,2.35-8.4,2.51-12.63,.38-9.82,.12-19.67,.12-29.5Zm137.24,122.58l.35,1.33c9.7-2.69,19.47-5.15,29.06-8.17,4.76-1.5,9.18-4.06,13.76-6.13-1-4.5-1.91-9.03-3.01-13.5-2.51-10.15-5.1-20.27-7.73-30.39-.26-1-1.06-1.86-1.61-2.79-.66,.61-1.46,1.11-1.94,1.83-8.79,13.28-17.53,26.59-26.3,39.89-2.99,4.53-6.05,9.02-9.05,13.54-1.72,2.6-.74,4.03,2.13,4.36,1.44,.16,2.91,.03,4.36,.03ZM6.12,235.16c9.62-11.79,17.84-21.76,25.94-31.83,5.2-6.46,10.36-12.97,15.27-19.65,4.07-5.55,3.73-6.62-2.31-9.73-7.09-3.66-14.24-7.22-21.42-10.7-5.5-2.67-6.64-2.33-7.84,3.95-2.85,14.82-7.08,29.43-6.9,44.73,.03,2.15-.39,4.3-.65,6.45-.6,4.93-1.22,9.86-2.08,16.79Zm339.93-16.77l.58-.08c-1.48-10.3-2.78-20.63-4.48-30.9-1.4-8.5-3.3-16.92-4.89-25.39-.38-2.03-.66-3.54-3.28-2.22-9.39,4.72-18.83,9.35-28.24,14.04-3.36,1.67-2.42,3.4-.45,5.84,12.01,14.87,23.82,29.88,35.73,44.83,1.28,1.6,2.76,3.04,4.15,4.55,.29-2.11,.66-4.21,.85-6.32,.13-1.44,.03-2.9,.03-4.36ZM6.75,260.62c.68,3.35,2.13,6.89,1.99,10.37-.5,12.79,3.12,24.99,4.87,37.44,.89,6.35,3.14,12.51,4.78,18.75,5.84-2.49,11.71-4.9,17.5-7.5,3.3-1.49,6.61-3.05,9.65-5.01,5.35-3.45,5.53-5.53,1.36-10.14-2.19-2.42-4.57-4.67-6.65-7.18-10.36-12.49-20.64-25.05-30.99-37.56-.51-.61-1.33-.96-2.01-1.44l-.5,2.26Z"/></svg>