<?xml version="1.0" encoding="UTF-8"?><svg id="a" xmlns="http://www.w3.org/2000/svg" viewBox="0 0 300.65 462"><defs><style>.b{fill:#1e4162;}</style></defs><path class="b" d="M149.92,0c11.18,12.79,21.58,24.16,31.39,36.02,25.81,31.2,48.76,64.44,68.68,99.68,20.93,37.03,37.47,75.96,45.82,117.79,3.37,16.89,4.9,34.42,4.83,51.65-.16,37.74-14.16,70.8-37.24,100.38-18.02,23.1-40.32,40.07-68.11,49.6-12.06,4.13-24.53,5.52-37.24,6.46-20.08,1.48-39.64-.86-58.11-8.02-45.84-17.75-77.33-49.5-91.65-97.37C2.23,335.92-.7,315.22,.14,294.28c1.23-30.54,7.7-60.16,18.07-89.02,17.84-49.65,43.97-94.75,75.1-137.01,14.55-19.75,30.48-38.49,45.93-57.58,2.69-3.33,6.07-6.1,10.69-10.67ZM73.35,291.09c8.55,20.64,17.6,42.5,26.53,64.07,16.52,6.99,32.16,13.61,48.15,20.38,13.07-5.45,26.08-11.25,39.38-16.28,6.61-2.5,10.04-6.81,12.35-13.19,7.57-20.81,15.52-41.48,23.38-62.36-7.09-26.99-14.25-54.08-21.32-81.2-2.43-9.32-6-17.77-12.94-24.94-6.86-7.09-12.56-15.29-18.92-22.87-6.82-8.13-13.83-16.11-21.27-24.74-13.28,16.14-25.49,31.66-38.48,46.51-6.5,7.43-10.06,15.64-12.5,25.03-7.66,29.44-15.93,58.72-24.38,89.59Zm-14.17-63.27c2.33-1.53,3.51-1.97,4.21-2.81,10.38-12.51,20.79-24.99,30.94-37.68,2.17-2.72,3.94-6.06,4.89-9.4,6.36-22.4,12.48-44.87,18.54-67.35,.53-1.98,.07-4.22,.07-7.99-22.81,14.04-44.3,27.26-65.49,40.31,2.29,28.38,4.51,55.91,6.85,84.93Zm188.04-83.9c-16.12-12.5-58.16-37.27-66.29-39.2-.21,.71-.76,1.52-.6,2.12,6.97,25.07,13.94,50.15,21.13,75.16,.84,2.94,2.57,5.82,4.52,8.21,6.01,7.35,12.34,14.44,18.53,21.64,3.18,3.69,6.34,7.39,11.18,13.03,4.65-28.75,8.51-55.03,11.52-80.95Zm46.24,150.64c6.82-28.48-21.53-112.86-41.54-141.43-5.63,26.1-7.48,51.56-11.49,77.65,17.33,20.84,34.91,41.98,53.03,63.78ZM48.26,154.51C31.59,171.29-.42,268.33,7.76,293.01c15.97-19.48,31.42-38.32,47.14-57.5-2.2-26.78-4.38-53.38-6.64-81Zm243.55,148.01c-9.33-14.93-45.97-57.86-53.49-62.38-2.87,13.23-6.08,26.1-8.29,39.15-.82,4.84,.19,10.2,1.28,15.12,2.65,11.89,5.78,23.68,8.9,35.46,.44,1.66,1.89,3.06,3.02,4.82,16.61-11,32.61-21.6,48.58-32.18Zm-177.5,101.87c-5.92-15.4-12.04-30.55-18.89-45.67-11.67-4.97-23.2-9.88-36-15.33-5.78,21.06-11.24,40.95-16.69,60.82,10.18,2.93,60.51,3.01,71.58,.18Zm69.36-1.39c13.18,2.56,61.49,2.08,70.66-.58-5.07-19.29-10.14-38.59-15.45-58.79-14.43,3.98-26.33,11.06-39.23,16.03-5.29,14.35-10.47,28.38-15.98,43.34ZM7.07,301.73c16.87,11.94,32.23,22.8,48.62,34.4,4.38-15.74,8.38-30.13,12.24-43.98-4.58-16.02-5.99-32.22-12.18-49.26-16.61,20.08-32.13,38.83-48.68,58.83Zm286.61,5.85c-17.29,11.46-33.61,22.28-49.44,32.77,1.83,14.73,12.17,51.61,16.24,58.65,18.16-18.48,38.33-65.32,33.2-91.42ZM37.79,402.89c6.33-21.69,11.33-41.34,16.6-61.21-16.12-10.93-30.65-22.98-48.67-33.64,.8,35.21,10.32,65.41,32.07,94.85ZM151.03,21.21h-3.12c-6.81,24.51-13.62,49.01-20.61,74.13,6.87,8.33,13.77,16.71,21.4,25.96,8.03-9.57,15.32-18.27,22.79-27.18-6.9-24.6-13.68-48.75-20.46-72.9Zm87.36,110.42c.62-.49,1.25-.98,1.87-1.47-11.25-21.88-25.78-41.62-40.87-62.28-7.09,9.46-15.09,16.87-19.81,27.53,19.96,12.29,39.38,24.25,58.81,36.22Zm-95.6,325.17c-6.69-16.38-20.18-39.03-26.29-44.83-7.76,5.47-24.96,23.74-28.82,30.95,17.17,7.94,34.77,13.34,55.11,13.88ZM59.69,130.86c20.05-11.3,40-22.64,60.06-35.95-7.73-8.56-13.07-17.58-21.61-24.53-15.12,19.07-26.95,39.43-38.45,60.49ZM207.45,443.14c-9.14-11.05-17.77-21.48-27.52-33.26-8.86,16.25-18.67,30.1-25.86,45.83,16.42,2.36,39.17-2.87,53.38-12.57ZM123.15,91.21c7.23-26.51,14.63-50.24,19.62-74.77-15.41,14.62-27.97,31.28-40.87,48.3,6.6,8.22,13,16.19,21.25,26.46Zm90.25,350.67c15.15-9.21,28.41-17.94,39.42-32.97-22.29,.11-42.5-.89-64.4,2.77,8.73,10.55,16.42,19.85,24.98,30.2ZM196.4,63.34c-13.58-16.95-25.34-33.25-40.58-46.76,5.39,22.73,11.56,44.96,17.86,67.15,.36,1.26,1.82,2.2,3.25,3.83,6.55-8.15,12.65-15.74,19.47-24.22Zm-5.15,106.69c-4.77-23.03-11.07-45.36-17.97-68.15-9.6,8.46-15.94,16.63-19.68,25.22,12.2,14.26,23.68,29.54,37.65,42.94Zm-66.5,241.43c7.96,14.23,15.27,27.3,23.53,42.04,8.8-14.87,16.53-27.93,24.89-42.04h-48.41Zm1.34-309.16c-8.09,23.35-12.95,45.38-18.58,67.38,13.52-14.16,26.19-28.79,37.59-44.54-6.27-7.53-11.79-14.17-19.01-22.84Zm-56.84,173.01c1.06-.02,2.12-.04,3.18-.06,5.67-20.46,11.37-40.91,16.97-61.38,1.01-3.68,1.58-7.47,2.35-11.22-12.3,10.26-21.68,22.64-31.17,34.93,2.97,12.91,5.82,25.32,8.68,37.74Zm38.42,136.68c-20.6-2.04-51.68-1.53-60.4,.82,9.03,11,20.32,18.58,33.12,26.24,8.84-8.77,17.41-17.27,27.28-27.06Zm118.71-116.09c-.86,.04-1.71,.07-2.57,.11-6.68,17.92-13.35,35.84-20.71,55.59,12.89-4.52,23.61-8.67,34.11-14.23-3.77-14.44-7.3-27.96-10.83-41.48Zm-17.63-93.87c.2,13.84,4.4,24.07,7.25,34.44,2.89,10.5,4.04,21.69,10.32,33.8,3.34-14.33,6.08-26.08,8.8-37.73-8.46-9.78-16.59-19.19-26.37-30.51Zm-118.96,148.31c.5-.67,1-1.35,1.51-2.02-6.25-15.19-12.5-30.39-18.97-46.11-4.68,8.39-9.64,26.2-10.37,36.84,9.18,3.73,18.51,7.51,27.83,11.29Zm33.16,56.49c17.63-.59,33.6-1.13,52.24-1.76-10.07-8.64-18.28-15.7-26.67-22.9-8.81,7.78-18.23,13.62-25.57,24.66Zm-17.08-43.54c-.6,.69-1.2,1.38-1.8,2.07,4.81,11.4,9.63,22.8,14.69,34.8,9.44-6.1,16.38-13.12,23.81-21.62-13.13-5.46-24.92-10.36-36.7-15.25Zm72.38,37.18c7.67-15.56,12.66-30.76,12.24-37.02-12.03,5.05-23.88,10.03-37.21,15.63,8.84,7.57,16.48,14.11,24.97,21.39Z"/></svg>