<?xml version="1.0" encoding="UTF-8"?><svg id="a" xmlns="http://www.w3.org/2000/svg" viewBox="0 0 462 462.43"><defs><style>.b{fill:#1e4162;}</style></defs><path class="b" d="M0,461.01V2.45c.5-.46,.86-.82,1.25-1.15,.38-.32,.78-.89,1.18-.89C153.41,.24,304.39,.1,455.38,0c1.93,0,3.87,.44,6.62,.78V460.05c-11.87,2.46-434.05,3.4-462,.97Zm113.36-112.86c5.48,1.1,9.42,2.1,13.43,2.65,22.16,3.03,44.3,6.27,66.52,8.78,15.63,1.77,31.5,4.33,47.05,3.27,25.32-1.73,50.47-6.02,75.67-9.46,10.98-1.5,21.88-3.56,32.41-5.29,1.11-4.25,2.2-7.14,2.6-10.13,4.24-31.7,8.67-63.37,12.36-95.13,1.04-8.99,.56-18.31-.46-27.34-2.4-21.17-4.93-42.37-8.62-63.34-2.25-12.75-.89-26.33-7.11-38.46-30.28-4.12-59.97-8.36-89.72-12.11-11.55-1.46-23.36-3.28-34.84-2.33-21.75,1.81-43.36,5.46-65.01,8.45-14.53,2.01-29.03,4.2-44.01,6.38-1.09,6.23-2.22,11.65-2.96,17.12-3.88,28.67-7.91,57.32-11.32,86.04-1.07,9.01-1.31,18.33-.31,27.33,2.33,21.18,5.61,42.26,8.56,63.37,1.82,13.02,3.74,26.02,5.79,40.21ZM25.63,448.42c.18,.71,.36,1.42,.54,2.13H440.18c-8.7-5.19-14.65-7.91-19.64-11.86-17.72-13.99-37.61-16.9-59.88-16.67-92.73,.94-185.48,.35-278.22,.46-5.47,0-11.7-.16-16.28,2.23-13.86,7.24-27.07,15.71-40.53,23.7Zm-15.11-13.05c1.43-.58,2.79-.69,3.2-1.37,7.91-13.05,15.94-26.03,23.35-39.35,1.83-3.3,2.15-7.77,2.16-11.7,.11-100.81,.1-201.62,.04-302.43,0-3.51,.34-7.58-1.24-10.43-8.26-14.97-17.09-29.63-27.51-47.45V435.37ZM451.87,26.99l-2.21-.71c-8.2,13.92-16.69,27.68-24.41,41.86-2.03,3.73-2.33,8.75-2.33,13.17-.12,100.15-.1,200.3-.06,300.46,0,3.52-.55,7.65,1.03,10.44,8.38,14.86,17.36,29.38,27.98,47.11V26.99ZM23.81,12.68c12.83,7.73,23.73,14,34.3,20.78,7.12,4.56,14.49,6.4,23.01,6.35,45.9-.3,91.8-.14,137.7-.14,54.06,0,108.12,.07,162.19-.11,5.43-.02,11.55-.24,16.16-2.64,13.4-6.99,26.2-15.14,41.6-24.23H23.81ZM94.57,46.56c-.29,.49-.59,.98-.88,1.47,43.47,14.19,86.88,28.57,130.48,42.33,4.85,1.53,11.09,.59,16.18-.91,19.02-5.61,37.86-11.87,56.72-18.01,23.85-7.76,47.65-15.64,71.48-23.46l-.34-1.41H94.57Zm-2.84,184.38c-14.87-45.39-29.4-89.75-43.94-134.1l-1.62,.41V365.02c.55,.11,1.1,.23,1.65,.34,14.57-44.6,29.13-89.2,43.9-134.41Zm4.66,182.58c24.25,3.99,258.53,3.17,270.6,.33-46.09-14.92-90.95-29.44-135.77-43.94-45.12,14.59-89.97,29.1-134.83,43.61ZM415.74,93.86c-15.92,48.39-30.64,93.15-45.16,137.32,14.77,45.16,29.26,89.47,43.75,133.78,.47-.07,.94-.13,1.41-.2V93.86ZM93.59,243.7c-15.56,48.14-30.24,93.56-45.95,142.18,21.97-13.22,40.85-24.58,59.77-35.97-4.6-35.35-9.03-69.35-13.82-106.22Zm274.86-27.28c10.46-22.66,42.99-127.69,42.48-137.44-18.6,11.14-36.81,22.05-55.96,33.52,4.44,34.22,8.85,68.24,13.48,103.92Zm1.47,30.57l-1.66,.17c-4.43,34.13-8.85,68.26-13.32,102.72,19.46,11.73,38,22.91,59.6,35.93-15.57-48.44-30.09-93.63-44.62-138.81Zm13.06,165.78c.64-.67,1.28-1.34,1.91-2.01-11.32-18.56-22.64-37.12-34.36-56.33-34.79,4.42-69.09,8.78-106.85,13.58,48.7,15.65,94,30.21,139.3,44.77Zm-32.31-304.68c12.18-20.15,23.33-38.58,35.9-59.38-47.83,15.31-92.81,29.7-137.79,44.1l.14,2.4c33.59,4.25,67.18,8.5,101.74,12.88ZM111.95,354.44c-11.73,19.15-23.17,37.83-36.43,59.48,48.95-15.7,94.38-30.26,143.18-45.91-37.87-4.81-72-9.15-106.76-13.57ZM51.64,79.18l-2.45,2.07c14.39,44.59,28.78,89.19,43.16,133.78l1.79-.48c4.38-33.99,8.75-67.97,13.14-102.06-19.25-11.52-37.45-22.41-55.65-33.3Zm23.93-30.46c13.02,21.25,24.54,40.04,36.39,59.39,34.3-4.37,67.86-8.65,101.42-12.92,.03-.79,.05-1.57,.08-2.36-45.02-14.4-90.04-28.8-137.89-44.11ZM13.95,13.37l-1.94,1.92c5.76,9.48,12.43,18.55,17.09,28.55,8.54,18.32,22.13,30.77,39.99,39.63,10.16,5.04,19.6,11.54,29.37,17.38-8.84-18.85-19.07-36.07-29.54-53.16-1.24-2.02-3.58-3.55-5.7-4.83C46.84,32.97,30.38,23.19,13.95,13.37ZM362.36,99.06c.55,.59,1.09,1.19,1.64,1.78,17.68-10.69,35.37-21.38,53.05-32.07,8.58-13.72,17.17-27.44,25.74-41.16,1.34-2.15,2.86-4.21,3.94-6.49,1.07-2.24,1.68-4.7,3.08-8.76-17.14,10.27-32.51,19.14-47.47,28.65-4.52,2.87-8.79,6.94-11.67,11.43-9.81,15.3-18.94,31.04-28.33,46.61ZM12.3,446.99l1.95,1.9c6.52-3.9,12.7-8.54,19.6-11.55,25.34-11.06,42.74-29.69,54.36-54.34,2.86-6.07,6.63-11.73,10.32-18.17-2.77-.23-3.92-.7-4.57-.32-15.73,9.23-31.45,18.49-47.05,27.95-2.07,1.25-3.85,3.36-5.12,5.46-9.92,16.3-19.69,32.7-29.5,49.07Zm435.67,1.99c.66-.73,1.32-1.46,1.97-2.19-7.01-11.66-14.67-23-20.87-35.08-6.52-12.71-15.84-21.68-28.5-28.09-9.01-4.56-17.27-10.6-25.96-15.81-2.76-1.66-5.86-2.77-10.17-4.76,.65,3.26,.58,4.79,1.23,5.89,8.81,14.78,17.64,29.56,26.71,44.18,1.52,2.46,3.97,4.62,6.46,6.16,16.3,10.02,32.73,19.83,49.11,29.71Z"/></svg>