<?xml version="1.0" encoding="UTF-8"?><svg id="a" xmlns="http://www.w3.org/2000/svg" viewBox="0 0 339.03 420.65"><defs><style>.b{fill:#1e4162;}</style></defs><path class="b" d="M339.03,372.72c-13.01,16.09-25.77,31.88-38.75,47.93H44.23c-14.26-15.28-29.08-31.16-44.23-47.4V42.22C13.97,28.88,29.12,14.42,44.23,0h251.61c13.87,14.19,28.03,28.69,43.19,44.21V372.72Zm-250.13-36.24c2.86,.41,6.01,.9,9.17,1.3,20.14,2.51,40.57,3.66,60.35,7.88,17.19,3.68,33.59,3.72,50.45-.28,7.02-1.67,14.35-2.07,21.54-3.02,8.19-1.08,16.38-2.13,25.1-3.26,2.91-35.82,5.79-70.88,8.58-105.95,.75-9.4,2.25-18.89,1.63-28.22-2.48-37.29-5.64-74.54-8.63-111.79-.4-4.95-1.29-9.85-1.9-14.35-20.01-2.4-39.02-3.29-57.37-7.25-18.99-4.1-37.1-2.79-55.81,.76-17.71,3.36-35.78,4.8-53.6,7.07-9.01,39.97-8.77,209.29,.48,257.12ZM6.23,49.44V364.74c8.88-8.77,16.55-16.35,24.04-23.74V71.3c-7.63-6.93-15.1-13.72-24.04-21.85Zm255.28,332.79H85.23c-5.2,5.02-10.47,9.99-15.6,15.09-5.24,5.21-10.36,10.54-16.49,16.8h238.42c-11.04-11.72-20.65-21.92-30.05-31.89ZM285.21,8.5l-.62-1.94H54.08c10.07,8.36,18.49,14.98,26.48,22.1,5.5,4.9,11.48,6.77,18.81,6.74,48.24-.18,96.48-.06,144.73-.08,3.95,0,7.89-.41,11.7-.62,10.04-8.94,19.72-17.57,29.41-26.2Zm47.75,47.37l-2.1-.95c-5.54,6.13-11.07,12.25-16.08,17.79V339.88c5.58,6.31,11.16,12.62,18.18,20.56V55.86ZM37.3,319.88l1.35,.31c.92-2.61,1.94-5.19,2.76-7.83,9.79-31.5,19.4-63.07,29.45-94.49,1.98-6.2,2.2-11.76,.3-17.96-8.83-28.75-17.34-57.6-25.99-86.41-2.03-6.77-4.13-13.51-6.2-20.27l-1.66,.4v226.25ZM308.06,100.4l-1.7-.38c-.74,1.49-1.71,2.91-2.19,4.48-9.98,32.55-20.07,65.07-29.66,97.73-1.22,4.16-.79,9.36,.47,13.6,5.85,19.79,12.21,39.43,18.48,59.09,4.43,13.9,9.01,27.76,13.52,41.64l1.09-.38V100.4Zm-.9,237.51c-11.87-37.23-23.27-72.97-34.66-108.71-4.83,36.37-8.11,72.49-10.2,108.71h44.86Zm-36.56-151.07l2.08-.12c11.08-36.39,22.17-72.78,33.63-110.39-15.77,.96-29.66,1.81-44.37,2.7,2.94,36.58,5.8,72.19,8.67,107.81ZM7.82,372.46c12.86,13.83,24.84,26.72,37.17,39.98,11.29-11.83,22.12-23.19,33.43-35.04-14.2-10.56-28.55-21.24-41.03-30.52-10.5,9.08-19.71,17.05-29.57,25.58Zm73.89-36.92c-2.2-35.24-4.35-69.59-6.49-103.95l-2.28-.03c-10.65,34.33-21.3,68.66-32.26,103.98h41.03Zm-8.56-150.28c3.8-13.69,8.04-98.83,5.64-106.23-12.11-.68-24.28-1.37-38.1-2.14,10.91,36.43,21.46,71.64,32.47,108.38ZM35.32,67.33c15.48-9.96,30.28-19.49,46.3-29.79-12.49-10.21-24.3-19.87-36.34-29.72-12.66,12-24.44,23.17-36.89,34.97,9.2,8.39,17.92,16.33,26.93,24.55ZM312.04,346.61c-15.53,11.01-30.13,21.36-45.27,32.09,11.06,11.63,21.19,22.28,32.09,33.75,11.79-14.62,22.85-28.34,34.29-42.54-7.26-8.02-13.79-15.22-21.11-23.3ZM262.25,37.54c16.37,10.87,31.39,20.84,47.18,31.32,7.7-8.41,14.89-16.26,21.73-23.73-12.37-12.63-23.97-24.47-36.12-36.87-10.68,9.54-21.15,18.89-32.79,29.29ZM109.56,372.87l.54,2.05H241.59c-18.07-7.08-36.43-12.25-54.85-17.18-2.72-.73-5.87-.94-8.6-.34-22.89,5.02-45.72,10.29-68.57,15.48Zm4.47-331.01l-.23,2.85c18.42,5.11,36.83,10.24,55.26,15.26,1.32,.36,2.93,.21,4.27-.18,18.4-5.3,36.78-10.67,55.15-16.11,.34-.1,.42-1.12,.65-1.82H114.03Zm-25.07,330.57c24.95-6.4,48.11-12.33,71.26-18.27-23.52-6.63-47.06-9.96-71.26-10.59v28.87ZM151.28,65.39c0-.88,0-1.77,0-2.65-20.34-6.72-40.69-13.44-62.42-20.62v30.83c21.12-2.56,41.77-5.06,62.42-7.57Zm40.28-2.9c21.07,5.83,41.9,8.72,63.06,8.74v-29.12c-21.61,6.98-42.34,13.68-63.06,20.38Zm9.08,290.23c.08,.56,.17,1.12,.25,1.68,18.46,5.67,36.93,11.35,56.87,17.47-.98-9.1-1.85-17.1-2.85-26.41-18.91,2.53-36.59,4.89-54.27,7.26Zm-118.75-9.63H43.16c14.07,10.36,25.37,19.96,38.72,28.22v-28.22Zm219.44,3.29c-13.36-2.04-26.03-2.22-39.57-1,.77,9.59,1.41,17.69,2.2,27.6,13.6-9.68,25.48-18.14,37.36-26.6ZM82.27,44.64c-13.41,8.64-25.16,16.21-36.91,23.78l.76,2.55h34.79c.42-8.1,.83-16.22,1.35-26.32Zm180.29,.67v26.42c12.04,.03,23.07,1.02,34.42-3.57-11.04-7.33-22.07-14.65-34.42-22.85Z"/></svg>