<?xml version="1.0" encoding="UTF-8"?><svg id="a" xmlns="http://www.w3.org/2000/svg" viewBox="0 0 488 487.95"><defs><style>.b{fill:#1e4162;}</style></defs><path class="b" d="M207.77,0c9.85,1.55,19.8,2.63,29.52,4.73,76.32,16.5,136.32,78.7,149.78,155.5,9.68,55.2-2.35,105.52-35.2,150.89-.65,.9-1.3,1.8-1.9,2.73-.16,.24-.14,.6-.3,1.34,8.81,8.79,17.8,17.74,26.77,26.7,34.25,34.24,68.47,68.52,102.77,102.72,7.62,7.6,10.88,16.35,7.42,26.82-5.61,16.97-26.71,22.07-39.95,9.66-6.37-5.97-12.41-12.29-18.58-18.47-36.39-36.38-72.78-72.75-109.13-109.16-1.33-1.33-2.23-3.08-3.36-4.69-4.68,3.3-8.26,5.88-11.91,8.37-71.71,48.99-170.03,43.13-235.57-14C31.89,311.55,10,272.01,2.19,224.64,1.32,219.36,.72,214.03,0,208.72c0-8.9,0-17.79,0-26.69,.27-1.07,.69-2.12,.78-3.2,2.64-32.57,12.78-62.65,30.84-89.83C62.12,43.09,104.46,14.41,158.65,3.61c7.73-1.54,15.59-2.42,23.39-3.61h25.73Zm133.72,195.41c.24-80.63-65.27-146.41-146.07-146.68-80.42-.26-146.44,65.55-146.68,146.21-.24,80.53,65.31,146.24,146.21,146.56,80.62,.32,146.29-65.16,146.54-146.09Z"/><path class="b" d="M170.74,158.29c0-12.23-.22-24.47,.06-36.69,.29-12.65,9.29-22.25,21.72-23.78,11.73-1.45,22.89,5.97,26.02,17.62,.81,3.01,.92,6.27,.93,9.42,.08,18.58-.08,37.17,.18,55.75,.03,2.5,1.31,5.57,3.06,7.36,12.61,12.99,25.66,25.56,38.25,38.57,13.2,13.64,7.89,35.32-9.81,40.69-8.91,2.7-17.2,.96-23.83-5.55-16.78-16.46-33.35-33.14-49.89-49.84-4.81-4.86-6.72-11.02-6.71-17.81,.01-11.91,0-23.83,0-35.74h.02Z"/></svg>