<?xml version="1.0" encoding="UTF-8"?><svg id="a" xmlns="http://www.w3.org/2000/svg" viewBox="0 0 491.87 492"><defs><style>.b{fill:#1e4162;}</style></defs><path class="b" d="M227.48,0h38.29c11.33,2.14,22.73,4,33.99,6.45,125.82,27.39,217.25,153.68,185.91,293.77-28.25,126.24-148.36,209.43-276.39,188.59-102.28-16.65-168.64-77.31-199.9-175.93-4.59-14.49-6.32-29.88-9.38-44.86,0-15.02,0-30.03,0-45.05,1.37-6.9,2.88-13.78,4.07-20.72C20.76,105.66,96.12,27.16,192.37,6.36c11.62-2.51,23.4-4.26,35.1-6.36Zm20.41,109.22c-1.96,.6-3.42,.93-4.79,1.48-29.14,11.7-58.33,23.3-87.34,35.31-3,1.24-5.94,4.5-7.28,7.55-12.51,28.41-24.8,56.93-36.72,85.59-1.39,3.34-1.33,8.2-.01,11.61,11.04,28.6,22.41,57.09,34.07,85.45,1.39,3.38,4.59,7,7.86,8.46,27.66,12.35,55.47,24.37,83.41,36.07,3.34,1.4,8.17,1.54,11.54,.24,29.32-11.27,58.51-22.86,87.57-34.79,3.33-1.37,6.68-4.89,8.17-8.24,12.14-27.35,23.79-54.91,35.71-82.35,2.02-4.66,2.49-8.79,.44-13.81-11.47-28.04-22.64-56.2-33.67-84.42-1.92-4.91-4.72-7.94-9.62-10.01-27.57-11.63-55.02-23.55-82.52-35.36-2.39-1.03-4.81-1.97-6.81-2.79Zm159.22-16.14c-25.86-4.03-50.45-7.86-76.56-11.93,5.82,14.7,11.87,27.54,15.96,40.99,4.14,13.64,11.74,22.01,25.51,26.46,13.37,4.32,26.03,10.82,41.03,17.23-2.06-25.19-3.96-48.46-5.94-72.75Zm15.26,95.86c-8.32,19.41-16,37.22-23.54,55.1-.8,1.91-1.58,4.52-.92,6.25,7.12,18.56,14.54,37.01,22.52,57.1,16.54-21.64,31.88-41.7,47.39-61.98-15.21-18.9-29.7-36.91-45.44-56.47Zm-351.23-5.14c-16.1,19.4-31.33,37.76-46.83,56.44,15.11,20.55,29.88,40.62,45.71,62.15,8.45-19.62,16.31-37.65,23.89-55.79,.76-1.82,.44-4.53-.31-6.46-7.19-18.38-14.59-36.68-22.46-56.34Zm340.12,148.43c-1.55-.37-2.38-.87-2.92-.66-17.42,6.83-34.84,13.66-52.17,20.72-2.27,.92-4.98,2.64-5.9,4.69-7.99,17.91-15.62,35.99-24.07,55.67,27.58-4.19,53.27-8.1,78.79-11.98,2.2-23.98,4.24-46.27,6.28-68.44ZM245.81,23.65c-19.04,15.37-37.18,30.03-56.4,45.54,19.38,8.37,37.18,16.12,55.06,23.7,1.9,.81,4.56,1.41,6.33,.72,18.4-7.12,36.69-14.53,56.31-22.38-20.92-16.24-40.7-31.59-61.3-47.58ZM81.58,160.86c20.02-7.93,38.34-15.1,56.55-22.54,1.79-.73,3.41-2.92,4.24-4.81,7.79-17.74,15.39-35.56,23.74-54.96-24.45,1.58-47.35,3.06-70.36,4.55-4.77,26.22-9.29,51.03-14.16,77.76Zm78.3,249.89c-.18-2.68,.02-3.88-.36-4.86-6.42-16.32-12.64-32.72-19.61-48.8-1.39-3.21-5.33-5.99-8.74-7.55-14.25-6.5-28.72-12.49-43.15-18.57-2.52-1.06-5.24-1.66-8.7-2.73,2.46,24.59,4.8,47.9,7.23,72.26,24.54,3.43,48.72,6.81,73.33,10.25Zm142.27,12.17c-19.06-8.19-36.15-15.74-53.45-22.8-3.15-1.29-7.55-1.79-10.61-.65-17.38,6.5-34.53,13.62-53.48,21.21,21.23,16.34,41.25,31.76,61.44,47.31,18.65-14.98,36.67-29.46,56.1-45.07ZM14.32,248.31c-5.47,45.36,26.59,126.95,59.04,151.58-2.29-23.04-4.87-45.73-6.65-68.49-.8-10.2-4.62-18.48-10.81-26.36-8.33-10.61-16.01-21.72-23.97-32.62-5.66-7.74-11.31-15.48-17.62-24.11ZM82.3,80.76C43,116.89,14.23,180.37,14.33,229.9c3.36-3.57,6.2-6.36,8.77-9.39,9.94-11.68,19.18-24.03,29.84-35,10.65-10.95,16.33-23.24,18.27-38.37,2.74-21.43,7.04-42.65,11.09-66.39Zm324.63-.78C374.02,42.92,304.59,11.78,258.03,14.9c.75,.97,1.26,1.99,2.07,2.63,19.71,15.47,39.39,30.97,59.26,46.25,2.51,1.93,5.86,3.21,9.01,3.79,12.48,2.33,25.03,4.36,37.58,6.32,12.85,2.01,25.73,3.83,40.99,6.08ZM233.45,477.98l1.02-2.26c-20.68-15.97-41.24-32.1-62.15-47.75-3.35-2.51-8.21-3.43-12.52-4.13-14.39-2.34-28.85-4.31-43.3-6.3-9.79-1.35-19.62-2.47-29.43-3.7,41.24,39.78,89.92,61.12,146.37,64.14Zm169.4-62.98c-26.21,3.91-52.44,7.76-78.63,11.84-3.2,.5-6.72,1.65-9.22,3.6-18.88,14.76-37.55,29.8-56.23,44.81-.32,.26-.04,1.26-.04,2.7,55.51-3.35,103.48-23.97,144.12-62.96Zm73.09-156.77c-10.26,13.21-19.97,26.89-30.91,39.52-13.63,15.74-24.18,32.28-22.04,54.24,.14,1.45-.51,2.95-.64,4.44-1.22,13.98-2.41,27.95-3.61,41.93,36.67-39.72,55.92-86.11,57.19-140.13ZM96.59,69.55c4.03-.24,8.05-.44,12.07-.74,16.43-1.21,32.83-3.06,49.28-3.45,10.72-.25,19.6-2.99,27.35-10.48,4.82-4.66,10.52-8.4,15.78-12.62,11.28-9.04,22.53-18.12,33.79-27.18-53.06,.98-98.89,19.31-138.28,54.46Zm325.14,24.23c-.26,3.72-.52,5.04-.41,6.33,1.92,22.72,3.67,45.45,6.02,68.13,.43,4.15,2.59,8.59,5.18,11.95,12.06,15.72,24.54,31.12,36.91,46.59,2.22,2.78,4.69,5.36,8.61,9.82-2.88-54.87-21.5-100.72-56.31-142.82Zm-162.07,296.94c18.67,8.04,35.04,15.08,52.52,22.61,7.3-17.11,14.3-33.5,21.29-49.89-.64-.44-1.27-.89-1.91-1.33-23.13,9.21-46.26,18.41-71.9,28.61Zm-130.97-56.55l1.86-1.31c-9.19-23.08-18.37-46.15-28.45-71.45-7.82,18.13-14.81,34.36-22.25,51.63,16.87,7.3,32.85,14.22,48.84,21.14Zm-26.41-106.89c10.65-24.84,20.43-47.66,31.17-72.7-18.77,7.54-35.18,14.13-51.92,20.86,6.87,17.17,13.25,33.09,20.75,51.85Zm310.21-47.43c-16.9-7.19-32.77-13.94-48.65-20.7l-1.59,1.95c9.05,22.73,18.11,45.46,28,70.28,7.82-18.11,14.72-34.09,22.24-51.53Zm-147.38-77.86c24.6,10.64,46.99,20.32,71.87,31.08-7.51-18.74-14.03-35.02-20.7-51.66-17.19,6.91-33.03,13.28-51.17,20.58Zm145.02,214.67c-6.71-16.73-13.14-32.73-20.61-51.35-10.66,24.92-20.15,47.1-29.64,69.28,.68,.46,1.35,.92,2.03,1.38,15.84-6.35,31.69-12.69,48.22-19.31ZM158.29,130.42c24.87-9.87,47.44-18.83,72.41-28.74-18.01-7.77-33.83-14.59-50.65-21.84-7.21,16.76-14.02,32.59-21.76,50.58Zm-3.24,229.35c7.21,18.11,13.58,34.1,20.27,50.9,16.89-6.82,32.71-13.2,50.63-20.43-24.46-10.51-46.58-20.01-70.91-30.46Z"/></svg>