<?xml version="1.0" encoding="UTF-8"?><svg id="a" xmlns="http://www.w3.org/2000/svg" viewBox="0 0 484.18 444"><defs><style>.b{fill:#1e4162;}</style></defs><path class="b" d="M484.18,26.18c-1.39,4.25-2.09,6.63-2.93,8.94-45.18,124.14-102.27,242.04-183.62,346.98-15.42,19.89-33.13,37.98-49.33,57.28-5.81,6.92-9.27,5.53-14.34-.68-61-74.81-116.26-153.52-162.04-238.65C44.29,148.64,19.89,95.79,3.3,39.66-2.04,21.59-2.56,24.39,14.54,21.01,109.53,2.22,205.43-3.14,302.04,1.66c57.87,2.87,115.25,9.6,172.09,20.79,3.49,.69,6.75,2.48,10.05,3.73Zm-249.18,40.64c-36.43-.51-76.71,2.75-116.47,11.39-13.66,2.97-14.31,3.47-9.05,16.01,14.52,34.64,28.31,69.67,44.92,103.3,20.57,41.65,46.56,79.93,80.62,112.23,5.63,5.34,9.56,6.48,15.04,.3,9.31-10.5,19.7-20.1,28.47-31.02,44.05-54.86,72.68-117.86,95.89-183.65,4.31-12.21,4.21-12.3-8.56-15.43-41.61-10.21-83.95-13.41-130.85-13.13ZM104.56,47.62c93.39,15.43,184.23,15.11,276.21-.85-44.85-38.42-221.04-38.16-276.21,.85Zm-31.58,58.39c-.24,2.31-.67,3.52-.42,4.56,9.58,40.56,19.03,81.15,29.08,121.58,1.28,5.15,4.93,10.42,8.91,14.08,18.55,17.05,37.61,33.54,56.48,50.24,11.6,10.27,23.18,20.55,34.76,30.83-24.68-84.46-68.62-157.02-128.81-221.29Zm209.04,216.84c3.13-1.08,4.47-1.18,5.29-1.88,29.58-25.13,59.21-50.21,88.51-75.67,3.09-2.68,5.1-7.45,6.05-11.6,4.37-19.3,8.23-38.72,12.2-58.11,4.14-20.2,8.19-40.42,12.29-60.63-55.53,60.75-96.81,129.26-124.33,207.89ZM458.61,29.86c-.24-1.12-.48-2.24-.71-3.37C312.93,1.27,168.02,.16,23.03,28.19c19.14,6.15,38.32,11.04,57.73,14.76,5.49,1.05,11.99-.34,17.42-2.3,20.14-7.31,39.51-17.26,60.1-22.68,45.05-11.87,91.2-8.5,136.94-4.67,33.06,2.77,65.56,9.09,94,28.27,2.43,1.64,6.33,2.56,9.15,1.96,20.14-4.28,40.18-9.05,60.25-13.66ZM241.67,425.9c7-23.87,13-44.87,19.33-65.76,5.09-16.8,4.75-16.12-8.13-26.68-8.03-6.59-13.87-6.71-20.85,.53-2.52,2.61-6.5,3.82-9.02,6.43-1.91,1.98-4.12,5.6-3.53,7.77,6.82,24.99,14.15,49.85,22.21,77.72Zm125.46-159.98l-2.05-1.59c-29.17,24.94-58.35,49.88-89.24,76.29,10.78,4.57,18.84,8.94,27.46,11.14,3.34,.85,9.39-2.14,11.72-5.25,9.17-12.21,17.59-25,25.84-37.87,9.02-14.07,17.54-28.46,26.27-42.72ZM465.56,35.72c-23.24,5.3-44.3,9.96-65.25,15.07-2.23,.54-4.54,3.32-5.62,5.62-8.93,19.02-8.09,20.97,11.2,28.63,1.52,.61,3.03,2.01,4.47,1.92,3.2-.2,7.52,0,9.36-1.9,15.04-15.65,29.61-31.75,45.84-49.34ZM120.62,265.14c-.48,.39-.97,.79-1.45,1.18,1.76,3.07,3.37,6.25,5.32,9.19,13.03,19.62,25.98,39.3,39.27,58.75,14.76,21.6,17.16,21.9,41.81,6.28-28.52-25.31-56.73-50.36-84.94-75.4Zm273.64-55.19l3.13,1.54c12.11-25.64,24.42-51.2,36.28-76.96,10.11-21.97,8.98-24.27-13.96-34.12-.34-.15-.82,.03-2.73,.15-7.52,36.2-15.12,72.8-22.72,109.4Zm-307.83,2.4l2.52-1.03c-8.9-37.59-17.8-75.17-26.98-113.92-5.78,3.41-9.58,5.85-13.56,7.95-8.3,4.38-11.12,9.9-5.86,18.86,3.93,6.71,6.27,14.33,9.79,21.31,11.25,22.34,22.71,44.56,34.09,66.83ZM17.97,36.31c14.95,15.69,28.44,28.95,40.79,43.2,5.62,6.49,10.5,8.05,17.71,3.94,2.11-1.21,4.76-1.49,6.86-2.71,4.1-2.38,12.72-1.14,10.4-9.1-2.23-7.65-1-18.25-12.08-20.85-20.31-4.76-40.68-9.27-63.67-14.48Zm254.46,311.09c-7.57,25.57-14.89,50.29-22.2,75.02,1.1,.56,2.2,1.13,3.31,1.69,17.06-20.66,34.12-41.33,51.93-62.89-11.98-5.01-21.69-9.08-33.03-13.82Zm-90.72,12.58c16.9,21.84,32.7,42.26,48.5,62.69,.82-.48,1.64-.95,2.46-1.43-6.9-24.29-13.81-48.57-20.95-73.7-10.23,4.24-18.86,7.82-30.01,12.44ZM14.47,43.43l-2.54,1.42c7.39,20.15,14.79,40.29,22.46,61.2,9-5.95,16.33-10.79,24.52-16.2-15.51-16.2-29.97-31.31-44.43-46.42Zm58.59,50.38c16.71,19.81,32.88,38.97,49.04,58.13-4.82-16.64-11.07-32.25-16.91-48.02-8.33-22.5-8.21-22.55-30.48-11.6-.36,.17-.61,.55-1.65,1.5Zm336.33,2.32c-21.31-13.32-22.88-12.83-30.45,8.55-1.79,5.05-3.69,10.06-5.62,15.06-4.5,11.64-9.05,23.25-13.58,34.88,.56,.26,1.13,.51,1.69,.77,15.78-19.5,31.56-38.99,47.97-59.26Zm60.16-49.44c-.88-.52-1.75-1.04-2.63-1.57-14.43,15.59-28.85,31.19-43.83,47.38,8.15,5.38,14.87,9.82,22.62,14.93,8.31-21.17,16.08-40.95,23.84-60.74ZM193.42,275.81c8.11,21.68,15.15,40.51,22.66,60.58,7.59-5.67,13.64-10.2,19.67-14.71-14.04-15.21-27.09-29.36-42.33-45.88Zm96.81,4.46c-.48-.28-.96-.57-1.44-.85-12.98,13.99-25.97,27.99-39.7,42.79,6.84,4.56,13.03,8.69,19.83,13.22,7.52-19.48,14.41-37.32,21.3-55.16ZM386.85,53.78c-22.16,3.05-43.5,5.99-64.83,8.93,14.25,3.93,28.38,6.48,42.39,9.52,16.91,3.66,16.89,3.85,21.47-12.38,.43-1.51,.51-3.11,.97-6.07Zm-230.3,9.88l.45-1.33c-19.7-2.59-39.4-5.18-60.03-7.9,1.04,4.22,1.81,6.56,2.17,8.97,1.41,9.41,5.88,11.34,15.21,8.74,13.79-3.84,28.11-5.75,42.2-8.49Z"/><path class="b" d="M99.14,63.4c-.36-2.41-1.13-4.75-2.17-8.97"/><path class="b" d="M157,62.33l-.45,1.33"/></svg>